<?xml version="1.0" encoding="UTF-8"?>
<svg id="Layer_2" data-name="Layer 2" xmlns="http://www.w3.org/2000/svg" viewBox="0 0 9683.99976 1408.43434">
  <defs>
    <style>
      .cls-1 {
        fill: #a4a4a4;
      }
    </style>
  </defs>
  <g id="Layer_1-2" data-name="Layer 1">
    <g>
      <path class="cls-1" d="m9428.30981,136.07632c28.1499-14.36505,43.09033-53.43622,18.95996-92.50775-29.87988-48.83936-116.63965-72.39716-279.81982,15.51373-173.52393,81.58997-249.36914,65.50201-252.81592,51.71198,13.79004-8.04401,9.19287-36.77289-10.91699-43.66791-45.96729-14.93909-71.82324,31.0274-61.47998,74.69592-100.55225-43.09387-243.04834-106.29779-390.71533-128.1319-103.99902-15.51367-201.67773-17.81201-275.79883-5.74579-36.19873,4.02197-70.67334,13.3277-105.72314,25.96851-76.41992,27.5799-155.13965,68.83716-255.68994,102.16321,28.1499-14.36505,43.09033-53.43622,18.95996-92.50775-29.87988-48.83936-116.63965-72.39716-279.81982,15.51373-173.52393,81.58997-249.36914,65.50201-252.81592,51.71198,13.79004-8.04401,9.19287-36.77289-10.91699-43.66791-45.96729-14.93909-71.82324,31.0274-61.47998,74.69592-100.55225-43.09387-243.04834-106.29779-390.71533-128.1319-103.99902-15.51367-201.67773-17.81201-275.79883-5.74579-36.19873,4.02197-70.67358,13.3277-105.7229,25.96851-76.42017,27.5799-155.14014,68.83716-255.68994,102.16321,28.1499-14.36505,43.08984-53.43622,18.95996-92.50775-29.88013-48.83936-116.64014-72.39716-279.82007,15.51373-173.52393,81.58997-249.36914,65.50201-252.81592,51.71198,13.79004-8.04401,9.19287-36.77289-10.91699-43.66791-45.96704-14.93909-71.82324,31.0274-61.47998,74.69592-100.55225-43.09387-243.0481-106.29779-390.71509-128.1319-103.99902-15.51367-201.67798-17.81201-275.79907-5.74579-36.19873,4.02197-70.67358,13.3277-105.7229,25.96851-76.42017,27.5799-155.14014,68.83716-255.68994,102.16321,28.1499-14.36505,43.08984-53.43622,18.95996-92.50775-29.88013-48.83936-116.64014-72.39716-279.82007,15.51373-173.52393,81.58997-249.36902,65.50201-252.81604,51.71198,13.79004-8.04401,9.19299-36.77289-10.91699-43.66791-45.96692-14.93909-71.823,31.0274-61.47998,74.69592-100.552-43.09387-243.04797-106.29779-390.71497-128.1319-103.99902-15.51367-201.67804-17.81201-275.79901-5.74579-36.19873,4.02197-70.67358,13.3277-105.72302,25.96851-76.42004,27.5799-155.14001,68.83716-255.68994,102.16321,28.1499-14.36505,43.08997-53.43622,18.95996-92.50775-29.88-48.83936-116.64001-72.39716-279.82007,15.51373-173.52393,81.58997-249.36896,65.50201-252.81598,51.71198,13.79004-8.04401,9.19305-36.77289-10.91699-43.66791-45.96698-14.93909-71.823,31.0274-61.47998,74.69592-100.552-43.09387-243.04797-106.29779-390.71497-128.1319-103.99902-15.51367-201.67804-17.81201-275.79901-5.74579-36.19867,4.02197-70.67358,13.3277-105.72302,25.96851-76.42004,27.5799-155.14001,68.83716-255.68988,102.16321,28.1499-14.36505,43.0899-53.43622,18.95996-92.50775-29.88013-48.83936-116.64014-72.39716-279.82007,15.51373-173.52393,81.58997-249.36902,65.50201-252.81604,51.71198,13.79004-8.04401,9.19299-36.77289-10.91699-43.66791-45.96692-14.93909-71.823,31.0274-61.47998,74.69592-100.552-43.09387-243.04797-106.29779-390.71497-128.1319C277.52295-1.82328,179.84399-4.12162,105.7229,7.9446,69.52417,11.96658,35.04932,21.2723,0,33.91311v134.33917c8.61865,2.87299,18.38647,2.87299,29.87817-1.14899,19.53564-6.32001,24.13232-35.04901,10.34253-43.09302,2.8728-13.78998,79.29224-29.8786,252.81519,51.71204,163.7561,87.91095,249.94312,64.35297,280.396,14.93896,24.13208-39.07098,9.19312-78.14301-18.96094-92.50751,138.474,46.5415,235.00293,108.02155,340.151,125.8335,75.84497,14.93903,180.41809,13.21503,291.88806-2.87299,149.96997-22.409,294.17987-86.76196,395.30988-129.85547-8.62,33.3255,4.6001,68.37146,32.18005,76.99048v.00299c8.61871,2.87299,18.3866,2.87299,29.87823-1.14899,19.53577-6.32001,24.13239-35.04901,10.34247-43.09302,2.87292-13.78998,79.2923-29.8786,252.81531,51.71204,163.75598,87.91095,249.94299,64.35297,280.396,14.93896,24.13202-39.07098,9.19299-78.14301-18.961-92.50751,138.474,46.5415,235.00299,108.02155,340.151,125.8335,75.84497,14.93903,180.41803,13.21503,291.888-2.87299,149.96997-22.409,294.17993-86.76196,395.30994-129.85547-8.62,33.3255,4.6001,68.37146,32.18005,76.99048v.00299c8.61871,2.87299,18.3866,2.87299,29.87823-1.14899,19.53577-6.32001,24.13239-35.04901,10.34247-43.09302,2.87292-13.78998,79.2923-29.8786,252.81525,51.71204,163.7561,87.91095,249.94312,64.35297,280.396,14.93896,24.13208-39.07098,9.19312-78.14301-18.96094-92.50751,138.474,46.5415,235.00293,108.02155,340.151,125.8335,75.84497,14.93903,180.41809,13.21503,291.88806-2.87299,149.96997-22.409,294.17993-86.76196,395.30981-129.85547-8.61987,33.3255,4.6001,68.37146,32.18018,76.99048v.00299c8.61865,2.87299,18.38647,2.87299,29.87817-1.14899,19.53564-6.32001,24.13232-35.04901,10.34253-43.09302,2.8728-13.78998,79.29224-29.8786,252.81519,51.71204,163.7561,87.91095,249.94312,64.35297,280.396,14.93896,24.13208-39.07098,9.19312-78.14301-18.96094-92.50751,138.47412,46.5415,235.00293,108.02155,340.15088,125.8335,75.84521,14.93903,180.41821,13.21503,291.88818-2.87299,149.96997-22.409,294.17993-86.76196,395.30981-129.85547-8.61987,33.3255,4.6001,68.37146,32.18018,76.99048v.00299c8.61865,2.87299,18.38647,2.87299,29.87817-1.14899,19.53564-6.32001,24.13232-35.04901,10.34253-43.09302,2.8728-13.78998,79.29224-29.8786,252.81519,51.71204,163.75586,87.91095,249.94287,64.35297,280.396,14.93896,24.13184-39.07098,9.19287-78.14301-18.96094-92.50751,138.47412,46.5415,235.00293,108.02155,340.15088,125.8335,75.84521,14.93903,180.41797,13.21503,291.88818-2.87299,149.96973-22.409,294.17969-86.76196,395.31006-129.85547-8.62012,33.3255,4.6001,68.37146,32.17969,76.99048v.00299c8.61865,2.87299,18.38672,2.87299,29.87842-1.14899,19.53564-6.32001,24.13232-35.04901,10.34229-43.09302,2.87305-13.78998,79.29248-29.8786,252.81543,51.71204,163.75586,87.91095,249.94287,64.35297,280.396,14.93896,24.13184-39.07098,9.19287-78.14301-18.96094-92.50751,138.47412,46.5415,235.00293,108.02155,340.15088,125.8335,75.84521,14.93903,180.41797,13.21503,291.88818-2.87299,149.96973-22.409,294.17969-86.76196,395.31006-129.85547-8.62012,33.3255,4.6001,68.37146,32.17969,76.99048V33.91311c-76.41992,27.5799-155.13965,68.83716-255.68994,102.16321ZM478.62598,192.95931c-36.19897-.57404-89.63501-20.11005-128.13208-36.198-12.63989-6.32104-27.58008-13.216-45.39209-20.685C171.22485,80.34182,82.73975,76.31966,42.51904,87.8113,3.44751,98.72842,1.14917,133.20327,13.78979,137.2253c-13.78979,2.29797-17.2373-24.70703-9.19312-40.2207,6.32031-12.06622,19.53564-31.0274,54.58521-39.64612,72.39697-18.3866,164.90503-25.28149,311.99707-3.44751,62.63,9.1933,117.78906,22.98334,167.203,39.07159-27.005-4.02209-48.83899,14.93872-51.71204,34.47473-2.87305,21.26001,10.91699,35.62396,32.75098,33.89996,18.38696-1.72296,21.26001-24.13196,11.49207-31.60199-6.89502-5.17096-13.79004-1.14899-14.93909,1.15002-2.29895-3.448,12.06604-14.94,25.28101,0,10.91699,12.64001,6.32104,62.62897-62.62891,62.05402Zm867.04395-89.63403c-13.21997,14.93903-28.15991,2.87299-25.28003,0,.57007,2.29803,7.46997,6.32001,14.93994,1.14899,9.76001-7.46967,6.32007-29.8783-11.5-31.60205-21.82983-2.29834-35.61987,12.06616-32.75,33.90009,2.88013,19.53601,24.71021,39.07196,51.72021,34.47498-49.98999,16.08801-104.58008,29.87799-167.21021,39.07202-144.21997,21.25897-235.57593,14.93896-307.39795-2.29901-6.89502-1.724-14.36499-4.59601-22.40894-7.46899-21.83398-9.76801-31.60205-23.55798-36.77295-33.32599-8.04407-15.51404-4.02209-42.51898,9.19287-40.2207-12.64087,4.02167-9.76794,38.4967,28.729,49.4137,40.22107,11.492,128.70605,7.46997,263.15796-48.83911,17.23999-7.4696,32.18018-14.3645,45.39014-20.68488,37.91992-16.08832,91.93994-35.62402,128.12988-36.19861,68.38013,0,72.97998,50.56311,62.06006,62.62958Zm746.95605,89.63403c-36.19904-.57404-89.63501-20.11005-128.13202-36.198-12.64001-6.32104-27.58002-13.216-45.39203-20.685-133.87695-55.7345-222.36224-59.75665-262.58295-48.26501-39.07153,10.91711-41.36987,45.39197-28.72913,49.414-13.78992,2.29797-17.23737-24.70703-9.19324-40.2207,6.32037-12.06622,19.53577-31.0274,54.58514-39.64612,72.39722-18.3866,164.90521-25.28149,311.99719-3.44751,62.63,9.1933,117.789,22.98334,167.203,39.07159-27.005-4.02209-48.83899,14.93872-51.71198,34.47473-2.87305,21.26001,10.91699,35.62396,32.75098,33.89996,18.38696-1.72296,21.26001-24.13196,11.492-31.60199-6.89502-5.17096-13.79004-1.14899-14.93903,1.15002-2.29901-3.448,12.06598-14.94,25.28101,0,10.91699,12.64001,6.32098,62.62897-62.62897,62.05402Zm867.04401-89.63403c-13.22009,14.93903-28.16003,2.87299-25.28003,0,.56995,2.29803,7.46997,6.32001,14.93994,1.14899,9.76001-7.46967,6.32007-29.8783-11.5-31.60205-21.82996-2.29834-35.62,12.06616-32.75,33.90009,2.88,19.53601,24.71008,39.07196,51.72009,34.47498-49.98999,16.08801-104.58008,29.87799-167.21008,39.07202-144.21997,21.25897-235.57599,14.93896-307.39795-2.29901-6.89502-1.724-14.36499-4.59601-22.409-7.46899-21.83405-9.76801-31.60199-23.55798-36.77301-33.32599-8.04401-15.51404-4.02203-42.51898,9.19299-40.2207-12.64099,4.02167-9.76801,38.4967,28.729,49.4137,40.22101,11.492,128.70599,7.46997,263.15796-48.83911,17.23999-7.4696,32.18005-14.3645,45.39001-20.68488,37.92004-16.08832,91.94006-35.62402,128.13-36.19861,68.38,0,72.97998,50.56311,62.06006,62.62958Zm746.95599,89.63403c-36.19897-.57404-89.63501-20.11005-128.13208-36.198-12.63989-6.32104-27.57996-13.216-45.39197-20.685-133.87695-55.7345-222.3623-59.75665-262.58301-48.26501-39.07147,10.91711-41.36981,45.39197-28.72906,49.414-13.78992,2.29797-17.23737-24.70703-9.19324-40.2207,6.32031-12.06622,19.53571-31.0274,54.58514-39.64612,72.39716-18.3866,164.90515-25.28149,311.99719-3.44751,62.63,9.1933,117.78906,22.98334,167.203,39.07159-27.005-4.02209-48.83899,14.93872-51.71204,34.47473-2.87305,21.26001,10.91699,35.62396,32.75098,33.89996,18.38696-1.72296,21.26001-24.13196,11.49207-31.60199-6.89502-5.17096-13.79004-1.14899-14.93909,1.15002-2.29895-3.448,12.06604-14.94,25.28101,0,10.91699,12.64001,6.32104,62.62897-62.62891,62.05402Zm867.04395-89.63403c-13.21997,14.93903-28.15991,2.87299-25.28003,0,.57007,2.29803,7.46997,6.32001,14.93994,1.14899,9.76001-7.46967,6.32007-29.8783-11.5-31.60205-21.82983-2.29834-35.61987,12.06616-32.75,33.90009,2.88013,19.53601,24.71021,39.07196,51.72021,34.47498-49.98999,16.08801-104.58008,29.87799-167.21021,39.07202-144.21997,21.25897-235.57593,14.93896-307.39795-2.29901-6.89502-1.724-14.36499-4.59601-22.40894-7.46899-21.83398-9.76801-31.60205-23.55798-36.77295-33.32599-8.04407-15.51404-4.02209-42.51898,9.19287-40.2207-12.64087,4.02167-9.76794,38.4967,28.729,49.4137,40.22107,11.492,128.70605,7.46997,263.15796-48.83911,17.23999-7.4696,32.18018-14.3645,45.39014-20.68488,37.91992-16.08832,91.93994-35.62402,128.12988-36.19861,68.38013,0,72.97998,50.56311,62.06006,62.62958Zm746.95605,89.63403c-36.19897-.57404-89.63501-20.11005-128.13208-36.198-12.63989-6.32104-27.58008-13.216-45.39209-20.685-133.87695-55.7345-222.3623-59.75665-262.58301-48.26501-39.07129,10.91711-41.36963,45.39197-28.729,49.414-13.78979,2.29797-17.2373-24.70703-9.19312-40.2207,6.32031-12.06622,19.53564-31.0274,54.58521-39.64612,72.39697-18.3866,164.90503-25.28149,311.99707-3.44751,62.62988,9.1933,117.78906,22.98334,167.20312,39.07159-27.00513-4.02209-48.83911,14.93872-51.71216,34.47473-2.87305,21.26001,10.91699,35.62396,32.75098,33.89996,18.38696-1.72296,21.26001-24.13196,11.49194-31.60199-6.89502-5.17096-13.79004-1.14899-14.93896,1.15002-2.29883-3.448,12.06592-14.94,25.28101,0,10.91699,12.64001,6.32104,62.62897-62.62891,62.05402Zm867.04395-89.63403c-13.21997,14.93903-28.15991,2.87299-25.28003,0,.57007,2.29803,7.46997,6.32001,14.93994,1.14899,9.76001-7.46967,6.32007-29.8783-11.5-31.60205-21.82983-2.29834-35.61987,12.06616-32.75,33.90009,2.88013,19.53601,24.71021,39.07196,51.72021,34.47498-49.98999,16.08801-104.58008,29.87799-167.21021,39.07202-144.21997,21.25897-235.57593,14.93896-307.39795-2.29901-6.89502-1.724-14.36499-4.59601-22.40894-7.46899-21.83398-9.76801-31.60205-23.55798-36.77295-33.32599-8.04395-15.51404-4.02197-42.51898,9.19287-40.2207-12.64087,4.02167-9.76807,38.4967,28.729,49.4137,40.22119,11.492,128.70605,7.46997,263.15796-48.83911,17.23999-7.4696,32.18018-14.3645,45.39014-20.68488,37.91992-16.08832,91.93994-35.62402,128.12988-36.19861,68.38013,0,72.97998,50.56311,62.06006,62.62958Zm746.9563,89.63403c-36.19922-.57404-89.63525-20.11005-128.13232-36.198-12.64014-6.32104-27.58008-13.216-45.39209-20.685-133.87695-55.7345-222.3623-59.75665-262.58301-48.26501-39.07129,10.91711-41.36963,45.39197-28.729,49.414-13.78979,2.29797-17.2373-24.70703-9.19312-40.2207,6.32031-12.06622,19.53564-31.0274,54.58521-39.64612,72.39697-18.3866,164.90527-25.28149,311.99707-3.44751,62.62988,9.1933,117.78906,22.98334,167.20312,39.07159-27.00488-4.02209-48.83887,14.93872-51.71191,34.47473-2.87305,21.26001,10.91699,35.62396,32.75098,33.89996,18.38672-1.72296,21.25977-24.13196,11.4917-31.60199-6.89502-5.17096-13.79004-1.14899-14.93896,1.15002-2.29883-3.448,12.06592-14.94,25.28125,0,10.91699,12.64001,6.3208,62.62897-62.62891,62.05402Zm867.04395-89.63403c-13.22021,14.93903-28.16016,2.87299-25.28027,0,.56982,2.29803,7.47021,6.32001,14.93994,1.14899,9.76025-7.46967,6.32031-29.8783-11.5-31.60205-21.83008-2.29834-35.62012,12.06616-32.75,33.90009,2.87988,19.53601,24.70996,39.07196,51.72021,34.47498-49.99023,16.08801-104.58008,29.87799-167.20996,39.07202-144.22021,21.25897-235.57617,14.93896-307.39795-2.29901-6.89502-1.724-14.36523-4.59601-22.40918-7.46899-21.83398-9.76801-31.60205-23.55798-36.77295-33.32599-8.04395-15.51404-4.02197-42.51898,9.19287-40.2207-12.64111,4.02167-9.76807,38.4967,28.729,49.4137,40.22119,11.492,128.70605,7.46997,263.1582-48.83911,17.23975-7.4696,32.17969-14.3645,45.38965-20.68488,37.92041-16.08832,91.94043-35.62402,128.13037-36.19861,68.37988,0,72.97998,50.56311,62.06006,62.62958Zm746.95605,89.63403c-36.19922-.57404-89.63525-20.11005-128.13232-36.198-12.64014-6.32104-27.58008-13.216-45.39209-20.685-133.87695-55.7345-222.3623-59.75665-262.58301-48.26501-39.07129,10.91711-41.36963,45.39197-28.729,49.414-13.79004,2.29797-17.2373-24.70703-9.19336-40.2207,6.32031-12.06622,19.53564-31.0274,54.58545-39.64612,72.39697-18.3866,164.90527-25.28149,311.99707-3.44751,62.62988,9.1933,117.78906,22.98334,167.20312,39.07159-27.00488-4.02209-48.83887,14.93872-51.71191,34.47473-2.87305,21.26001,10.91699,35.62396,32.75098,33.89996,18.38672-1.72296,21.25977-24.13196,11.4917-31.60199-6.89502-5.17096-13.79004-1.14899-14.93896,1.15002-2.29883-3.448,12.06592-14.94,25.28125,0,10.91699,12.64001,6.3208,62.62897-62.62891,62.05402Zm867.04395-89.63403c-13.22021,14.93903-28.16016,2.87299-25.28027,0,.56982,2.29803,7.47021,6.32001,14.93994,1.14899,9.76025-7.46967,6.32031-29.8783-11.5-31.60205-21.83008-2.29834-35.62012,12.06616-32.75,33.90009,2.87988,19.53601,24.70996,39.07196,51.72021,34.47498-49.99023,16.08801-104.58008,29.87799-167.20996,39.07202-144.22021,21.25897-235.57617,14.93896-307.39795-2.29901-6.89502-1.724-14.36523-4.59601-22.40918-7.46899-21.83398-9.76801-31.60205-23.55798-36.77295-33.32599-8.04395-15.51404-4.02197-42.51898,9.19287-40.2207-12.64111,4.02167-9.76807,38.4967,28.729,49.4137,40.22119,11.492,128.70605,7.46997,263.1582-48.83911,17.23975-7.4696,32.17969-14.3645,45.38965-20.68488,37.92041-16.08832,91.94043-35.62402,128.13037-36.19861,68.37988,0,72.97998,50.56311,62.06006,62.62958Z"/>
      <path class="cls-1" d="m9654.12183,302.37484c-19.53564,6.31995-24.13232,35.04895-10.34277,43.09296-2.87256,13.79004-79.29199,29.8786-252.81494-51.71198-163.75635-87.91101-249.94336-64.35303-280.396-14.93903-24.13232,39.07104-9.19336,78.14301,18.96094,92.50751-138.47412-46.5415-235.00293-108.02148-340.15088-125.8335-75.84521-14.93896-180.41846-13.21497-291.88818,2.87299-149.97021,22.409-294.18018,86.76202-395.31006,129.85553,8.62012-33.3255-4.6001-68.37152-32.18018-76.99048v-.00305c-8.61865-2.87299-18.38623-2.87299-29.87793,1.14905-19.53564,6.31995-24.13232,35.04895-10.34277,43.09296-2.87256,13.79004-79.29199,29.8786-252.81494-51.71198-163.75635-87.91101-249.94336-64.35303-280.396-14.93903-24.13232,39.07104-9.19336,78.14301,18.96094,92.50751-138.47412-46.5415-235.00293-108.02148-340.15088-125.8335-75.84521-14.93896-180.41846-13.21497-291.88818,2.87299-149.97021,22.409-294.18018,86.76202-395.31006,129.85553,8.62012-33.3255-4.6001-68.37152-32.17993-76.99048v-.00305c-8.6189-2.87299-18.38672-2.87299-29.87817,1.14905-19.53589,6.31995-24.13257,35.04895-10.34253,43.09296-2.8728,13.79004-79.29224,29.8786-252.81543-51.71198-163.75586-87.91101-249.94287-64.35303-280.396-14.93903-24.13208,39.07104-9.19287,78.14301,18.96118,92.50751-138.47412-46.5415-235.00317-108.02148-340.15112-125.8335-75.84497-14.93896-180.41797-13.21497-291.88794,2.87299-149.96997,22.409-294.17993,86.76202-395.31006,129.85553,8.62012-33.3255-4.6001-68.37152-32.17993-76.99048v-.00305c-8.6189-2.87299-18.38672-2.87299-29.87817,1.14905-19.53589,6.31995-24.13257,35.04895-10.34253,43.09296-2.8728,13.79004-79.29224,29.8786-252.81543-51.71198-163.75586-87.91101-249.94287-64.35303-280.396-14.93903-24.13196,39.07104-9.19287,78.14301,18.96106,92.50751-138.474-46.5415-235.00305-108.02148-340.151-125.8335-75.84497-14.93896-180.41797-13.21497-291.88794,2.87299-149.96997,22.409-294.17999,86.76202-395.31,129.85553,8.62-33.3255-4.6001-68.37152-32.18005-76.99048v-.00305c-8.61871-2.87299-18.3866-2.87299-29.87817,1.14905-19.53583,6.31995-24.13245,35.04895-10.34253,43.09296-2.87286,13.79004-79.2923,29.8786-252.81531-51.71198-163.75598-87.91101-249.94299-64.35303-280.396-14.93903-24.13202,39.07104-9.19299,78.14301,18.961,92.50751-138.474-46.5415-235.00299-108.02148-340.151-125.8335-75.84497-14.93896-180.41803-13.21497-291.888,2.87299-149.96997,22.409-294.17993,86.76202-395.30994,129.85553,8.62-33.3255-4.6001-68.37152-32.18005-76.99048v-.00305c-8.61871-2.87299-18.3866-2.87299-29.87817,1.14905-19.53583,6.31995-24.13239,35.04895-10.34253,43.09296-2.87286,13.79004-79.2923,29.8786-252.81537-51.71198-163.75586-87.91101-249.94287-64.35303-280.396-14.93903-24.13196,39.07104-9.19287,78.14301,18.96106,92.50751-138.474-46.5415-235.00305-108.02148-340.151-125.8335-75.84497-14.93896-180.41797-13.21497-291.88794,2.87299-149.96997,22.409-294.17993,86.76202-395.31006,129.85553,8.62012-33.3255-4.6001-68.37152-32.17993-76.99048v134.33618c76.41992-27.5799,155.13989-68.83722,255.68994-102.16321-28.1499,14.36499-43.09009,53.43622-18.95996,92.50769,29.87988,48.83942,116.63989,72.39722,279.82007-15.51367,173.52393-81.59003,249.3689-65.50201,252.81592-51.71204-13.79004,8.04401-9.19312,36.77289,10.91699,43.66791,45.96704,14.93909,71.823-31.0274,61.47998-74.69592,100.552,43.09393,243.04797,106.29785,390.71509,128.13196,103.9989,15.51367,201.67792,17.81201,275.79895,5.74579,36.19867-4.02203,70.67358-13.3277,105.72296-25.96851,76.42004-27.5799,155.14001-68.83722,255.68994-102.16321-28.1499,14.36499-43.08997,53.43622-18.95996,92.50769,29.88,48.83942,116.64001,72.39722,279.82007-15.51367,173.52393-81.59003,249.36896-65.50201,252.81598-51.71204-13.79004,8.04401-9.19305,36.77289,10.91699,43.66791,45.96698,14.93909,71.823-31.0274,61.47998-74.69592,100.552,43.09393,243.04797,106.29785,390.71503,128.13196,103.99896,15.51367,201.67798,17.81201,275.79901,5.74579,36.19867-4.02203,70.67358-13.3277,105.72296-25.96851,76.42004-27.5799,155.14001-68.83722,255.69-102.16321-28.1499,14.36499-43.09003,53.43622-18.95996,92.50769,29.87988,48.83942,116.63989,72.39722,279.82007-15.51367,173.52393-81.59003,249.3689-65.50201,252.81592-51.71204-13.79004,8.04401-9.19312,36.77289,10.91699,43.66791,45.96704,14.93909,71.823-31.0274,61.47998-74.69592,100.552,43.09393,243.04797,106.29785,390.71509,128.13196,103.99878,15.51367,201.67798,17.81201,275.79907,5.74579,36.19849-4.02203,70.67334-13.3277,105.7229-25.96851,76.41992-27.5799,155.13989-68.83722,255.68994-102.16321-28.1499,14.36499-43.09009,53.43622-18.95996,92.50769,29.87988,48.83942,116.63989,72.39722,279.82007-15.51367,173.52393-81.59003,249.3689-65.50201,252.81592-51.71204-13.79004,8.04401-9.19312,36.77289,10.91699,43.66791,45.96704,14.93909,71.823-31.0274,61.47998-74.69592,100.552,43.09393,243.04785,106.29785,390.71509,128.13196,103.99878,15.51367,201.67798,17.81201,275.79907,5.74579,36.19849-4.02203,70.67334-13.3277,105.7229-25.96851,76.42017-27.5799,155.13989-68.83722,255.6897-102.16321-28.1499,14.36499-43.08984,53.43622-18.95996,92.50769,29.88037,48.83942,116.64014,72.39722,279.82031-15.51367,173.52393-81.59003,249.36914-65.50201,252.81592-51.71204-13.79004,8.04401-9.19287,36.77289,10.91699,43.66791,45.9668,14.93909,71.82275-31.0274,61.47998-74.69592,100.55176,43.09393,243.04785,106.29785,390.71484,128.13196,103.99902,15.51367,201.67822,17.81201,275.79932,5.74579,36.19873-4.02203,70.67334-13.3277,105.72266-25.96851,76.42041-27.5799,155.14014-68.83722,255.68994-102.16321-28.1499,14.36499-43.08984,53.43622-18.95996,92.50769,29.88037,48.83942,116.64014,72.39722,279.82031-15.51367,173.52393-81.59003,249.36914-65.50201,252.81592-51.71204-13.79004,8.04401-9.19287,36.77289,10.91699,43.66791,45.9668,14.93909,71.82275-31.0274,61.47998-74.69592,100.55176,43.09393,243.04785,106.29785,390.71484,128.13196,103.99902,15.51367,201.67822,17.81201,275.79932,5.74579,36.19873-4.02203,70.67334-13.3277,105.72266-25.96851v-134.33923c-8.61865-2.87299-18.38623-2.87299-29.87793,1.14905ZM795.79688,372.47353c12.64111-4.02173,9.76807-38.4967-28.729-49.4137-40.22095-11.492-128.70593-7.47003-263.15796,48.83905-17.23999,7.4696-32.17993,14.3645-45.38989,20.68494-37.92017,16.08832-91.94019,35.62396-128.13013,36.19861-68.37988,0-72.97998-50.56311-62.06006-62.62964,13.22021-14.93896,28.16016-2.87299,25.28003,0-.56982-2.29797-7.46997-6.31995-14.93994-1.14899-9.76001,7.46973-6.32007,29.8783,11.5,31.60211,21.83008,2.29828,35.62012-12.06622,32.75-33.90009-2.87988-19.53601-24.70996-39.07202-51.71997-34.47504,49.98999-16.08801,104.58008-29.87799,167.20996-39.07196,144.21997-21.25903,235.57605-14.93903,307.39795,2.29895,6.89502,1.724,14.36499,4.59601,22.40906,7.46906,21.83411,9.76794,31.60193,23.55798,36.77307,33.32599,8.04395,15.51398,4.02197,42.51898-9.19312,40.2207Zm813.60645,0c-6.32037,12.06616-19.53577,31.0274-54.58514,39.64606-72.39722,18.3866-164.90521,25.28156-311.99713,3.44751-62.63013-9.1933-117.78906-22.98328-167.20312-39.07159,27.005,4.02209,48.83911-14.93866,51.71204-34.47467,2.87292-21.26001-10.91699-35.62402-32.7511-33.90002-18.38696,1.72302-21.26001,24.13202-11.49194,31.60199,6.89502,5.17102,13.79004,1.14899,14.93896-1.14996,2.29907,3.448-12.06592,14.94-25.28101,0-10.91699-12.64001-6.32092-62.62903,62.62915-62.05402,36.19897.57397,89.63501,20.10999,128.13196,36.198,12.64001,6.32098,27.57996,13.216,45.39197,20.685,133.87701,55.7345,222.3623,59.75659,262.58301,48.26501,39.07153-10.91711,41.36987-45.39203,28.72913-49.414,13.78986-2.29803,17.23737,24.70697,9.19324,40.2207Zm800.39362,0c12.64099-4.02173,9.76801-38.4967-28.729-49.4137-40.22101-11.492-128.70599-7.47003-263.15796,48.83905-17.23999,7.4696-32.18005,14.3645-45.39001,20.68494-37.92004,16.08832-91.94006,35.62396-128.13,36.19861-68.38,0-72.97998-50.56311-62.06006-62.62964,13.22009-14.93896,28.16003-2.87299,25.28003,0-.56995-2.29797-7.46997-6.31995-14.93994-1.14899-9.76001,7.46973-6.32007,29.8783,11.5,31.60211,21.82996,2.29828,35.62-12.06622,32.75-33.90009-2.88-19.53601-24.71008-39.07202-51.72009-34.47504,49.98999-16.08801,104.58008-29.87799,167.21008-39.07196,144.21997-21.25903,235.57599-14.93903,307.39795,2.29895,6.89502,1.724,14.36499,4.59601,22.409,7.46906,21.83405,9.76794,31.60199,23.55798,36.77301,33.32599,8.04401,15.51398,4.02203,42.51898-9.19299,40.2207Zm813.60638,0c-6.32037,12.06616-19.53577,31.0274-54.58514,39.64606-72.39722,18.3866-164.90521,25.28156-311.99719,3.44751-62.63-9.1933-117.789-22.98328-167.20306-39.07159,27.005,4.02209,48.83905-14.93866,51.71204-34.47467,2.87299-21.26001-10.91699-35.62402-32.75104-33.90002-18.38696,1.72302-21.26001,24.13202-11.492,31.60199,6.89502,5.17102,13.79004,1.14899,14.93903-1.14996,2.29901,3.448-12.06598,14.94-25.28101,0-10.91699-12.64001-6.32098-62.62903,62.62903-62.05402,36.19897.57397,89.63501,20.10999,128.13202,36.198,12.63995,6.32098,27.57996,13.216,45.39197,20.685,133.87701,55.7345,222.3623,59.75659,262.58301,48.26501,39.07147-10.91711,41.36981-45.39203,28.72906-49.414,13.78992-2.29803,17.23743,24.70697,9.1933,40.2207Zm800.39355,0c12.64111-4.02173,9.76807-38.4967-28.729-49.4137-40.22095-11.492-128.70593-7.47003-263.15796,48.83905-17.23999,7.4696-32.17993,14.3645-45.38989,20.68494-37.92017,16.08832-91.94019,35.62396-128.13013,36.19861-68.37988,0-72.97998-50.56311-62.06006-62.62964,13.22021-14.93896,28.16016-2.87299,25.28003,0-.56982-2.29797-7.46997-6.31995-14.93994-1.14899-9.76001,7.46973-6.32007,29.8783,11.5,31.60211,21.83008,2.29828,35.62012-12.06622,32.75-33.90009-2.87988-19.53601-24.70996-39.07202-51.71997-34.47504,49.98999-16.08801,104.58008-29.87799,167.20996-39.07196,144.21997-21.25903,235.57605-14.93903,307.39795,2.29895,6.89502,1.724,14.36499,4.59601,22.40906,7.46906,21.83411,9.76794,31.60193,23.55798,36.77307,33.32599,8.04395,15.51398,4.02197,42.51898-9.19312,40.2207Zm813.60645,0c-6.32031,12.06616-19.53589,31.0274-54.58521,39.64606-72.39722,18.3866-164.90527,25.28156-311.99707,3.44751-62.63013-9.1933-117.78906-22.98328-167.20312-39.07159,27.005,4.02209,48.83911-14.93866,51.71204-34.47467,2.87292-21.26001-10.91699-35.62402-32.7511-33.90002-18.38696,1.72302-21.26001,24.13202-11.49194,31.60199,6.89502,5.17102,13.79004,1.14899,14.93896-1.14996,2.29907,3.448-12.06592,14.94-25.28101,0-10.91699-12.64001-6.32092-62.62903,62.62915-62.05402,36.19897.57397,89.63501,20.10999,128.13208,36.198,12.63989,6.32098,27.57983,13.216,45.39185,20.685,133.87695,55.7345,222.3623,59.75659,262.58301,48.26501,39.07153-10.91711,41.36987-45.39203,28.729-49.414,13.79004-2.29803,17.23755,24.70697,9.19336,40.2207Zm800.39355,0c12.64111-4.02173,9.76807-38.4967-28.729-49.4137-40.22095-11.492-128.70581-7.47003-263.15796,48.83905-17.23999,7.4696-32.17993,14.3645-45.38989,20.68494-37.92017,16.08832-91.94019,35.62396-128.13013,36.19861-68.37988,0-72.97998-50.56311-62.06006-62.62964,13.22021-14.93896,28.16016-2.87299,25.28003,0-.56982-2.29797-7.46997-6.31995-14.93994-1.14899-9.76001,7.46973-6.32007,29.8783,11.5,31.60211,21.83008,2.29828,35.62012-12.06622,32.75-33.90009-2.87988-19.53601-24.70996-39.07202-51.71997-34.47504,49.98999-16.08801,104.58008-29.87799,167.20996-39.07196,144.21997-21.25903,235.57617-14.93903,307.39795,2.29895,6.89502,1.724,14.36499,4.59601,22.40918,7.46906,21.83398,9.76794,31.60181,23.55798,36.77295,33.32599,8.04395,15.51398,4.02197,42.51898-9.19312,40.2207Zm813.60645,0c-6.32031,12.06616-19.53589,31.0274-54.58521,39.64606-72.39722,18.3866-164.90527,25.28156-311.99707,3.44751-62.63013-9.1933-117.78906-22.98328-167.20312-39.07159,27.00488,4.02209,48.83911-14.93866,51.71191-34.47467,2.87305-21.26001-10.91699-35.62402-32.75098-33.90002-18.38696,1.72302-21.26001,24.13202-11.49194,31.60199,6.89502,5.17102,13.79004,1.14899,14.93896-1.14996,2.29907,3.448-12.06592,14.94-25.28101,0-10.91699-12.64001-6.3208-62.62903,62.62915-62.05402,36.19897.57397,89.63501,20.10999,128.13208,36.198,12.63989,6.32098,27.57983,13.216,45.39185,20.685,133.87695,55.7345,222.3623,59.75659,262.58301,48.26501,39.07153-10.91711,41.36987-45.39203,28.729-49.414,13.79004-2.29803,17.23755,24.70697,9.19336,40.2207Zm800.3938,0c12.64062-4.02173,9.76758-38.4967-28.729-49.4137-40.22119-11.492-128.70605-7.47003-263.1582,48.83905-17.23975,7.4696-32.18018,14.3645-45.39014,20.68494-37.91992,16.08832-91.93994,35.62396-128.12988,36.19861-68.37988,0-72.97998-50.56311-62.06006-62.62964,13.22021-14.93896,28.16016-2.87299,25.28027,0-.57031-2.29797-7.47021-6.31995-14.93994-1.14899-9.76025,7.46973-6.32031,29.8783,11.5,31.60211,21.82959,2.29828,35.61963-12.06622,32.75-33.90009-2.88037-19.53601-24.71045-39.07202-51.72021-34.47504,49.98975-16.08801,104.58008-29.87799,167.20996-39.07196,144.22021-21.25903,235.57617-14.93903,307.39795,2.29895,6.89502,1.724,14.36523,4.59601,22.40918,7.46906,21.83398,9.76794,31.60205,23.55798,36.77295,33.32599,8.04395,15.51398,4.02197,42.51898-9.19287,40.2207Zm813.60645,0c-6.3208,12.06616-19.53613,31.0274-54.58545,39.64606-72.39697,18.3866-164.90527,25.28156-311.99707,3.44751-62.62988-9.1933-117.78906-22.98328-167.20312-39.07159,27.00488,4.02209,48.83887-14.93866,51.71191-34.47467,2.87305-21.26001-10.91699-35.62402-32.75098-33.90002-18.38672,1.72302-21.25977,24.13202-11.4917,31.60199,6.89453,5.17102,13.79004,1.14899,14.93896-1.14996,2.29883,3.448-12.06592,14.94-25.28125,0-10.91699-12.64001-6.3208-62.62903,62.62891-62.05402,36.19922.57397,89.63525,20.10999,128.13232,36.198,12.63965,6.32098,27.58008,13.216,45.3916,20.685,133.87744,55.7345,222.3623,59.75659,262.58301,48.26501,39.07178-10.91711,41.37012-45.39203,28.72949-49.414,13.78955-2.29803,17.2373,24.70697,9.19336,40.2207Zm800.39355,0c12.64062-4.02173,9.76758-38.4967-28.729-49.4137-40.22119-11.492-128.70605-7.47003-263.1582,48.83905-17.23975,7.4696-32.18018,14.3645-45.39014,20.68494-37.91992,16.08832-91.93994,35.62396-128.12988,36.19861-68.37988,0-72.97998-50.56311-62.06006-62.62964,13.22021-14.93896,28.16016-2.87299,25.28027,0-.57031-2.29797-7.47021-6.31995-14.93994-1.14899-9.76025,7.46973-6.32031,29.8783,11.5,31.60211,21.82959,2.29828,35.61963-12.06622,32.75-33.90009-2.88037-19.53601-24.71045-39.07202-51.72021-34.47504,49.98975-16.08801,104.58008-29.87799,167.20996-39.07196,144.22021-21.25903,235.57617-14.93903,307.39795,2.29895,6.89502,1.724,14.36523,4.59601,22.40918,7.46906,21.83398,9.76794,31.60205,23.55798,36.77295,33.32599,8.04395,15.51398,4.02197,42.51898-9.19287,40.2207Zm813.60645,0c-6.3208,12.06616-19.53613,31.0274-54.58545,39.64606-72.39697,18.3866-164.90527,25.28156-311.99707,3.44751-62.62988-9.1933-117.78906-22.98328-167.20312-39.07159,27.00488,4.02209,48.83887-14.93866,51.71191-34.47467,2.87305-21.26001-10.91699-35.62402-32.75098-33.90002-18.38672,1.72302-21.25977,24.13202-11.4917,31.60199,6.89453,5.17102,13.79004,1.14899,14.93896-1.14996,2.29883,3.448-12.06592,14.94-25.28125,0-10.91699-12.64001-6.3208-62.62903,62.62891-62.05402,36.19922.57397,89.63525,20.10999,128.13232,36.198,12.63965,6.32098,27.58008,13.216,45.3916,20.685,133.87744,55.7345,222.3623,59.75659,262.58301,48.26501,39.07178-10.91711,41.37012-45.39203,28.72949-49.414,13.78955-2.29803,17.2373,24.70697,9.19336,40.2207Z"/>
      <path class="cls-1" d="m9447.26978,513.04671c-29.87988-48.83942-116.63965-72.39722-279.81982,15.51367-173.52393,81.59003-249.36914,65.50201-252.81592,51.71204,13.79004-8.04401,9.19287-36.77289-10.91699-43.66791-45.96729-14.93909-71.82324,31.0274-61.47998,74.69592-100.55225-43.09393-243.04834-106.29785-390.71533-128.1319-103.99902-15.51373-201.67773-17.81207-275.79883-5.74585-36.19873,4.02203-70.67334,13.3277-105.72314,25.96851-76.41992,27.5799-155.13965,68.83722-255.68994,102.16321,28.1499-14.36499,43.09033-53.43622,18.95996-92.50769-29.87988-48.83942-116.63965-72.39722-279.81982,15.51367-173.52393,81.59003-249.36914,65.50201-252.81592,51.71204,13.79004-8.04401,9.19287-36.77289-10.91699-43.66791-45.96729-14.93909-71.82324,31.0274-61.47998,74.69592-100.55225-43.09393-243.04834-106.29785-390.71533-128.1319-103.99902-15.51373-201.67773-17.81207-275.79883-5.74585-36.19873,4.02203-70.67358,13.3277-105.7229,25.96851-76.42017,27.5799-155.14014,68.83722-255.68994,102.16321,28.1499-14.36499,43.08984-53.43622,18.95996-92.50769-29.88013-48.83942-116.64014-72.39722-279.82007,15.51367-173.52393,81.59003-249.36914,65.50201-252.81592,51.71204,13.79004-8.04401,9.19287-36.77289-10.91699-43.66791-45.96704-14.93909-71.82324,31.0274-61.47998,74.69592-100.55225-43.09393-243.0481-106.29785-390.71509-128.1319-103.99902-15.51373-201.67798-17.81207-275.79907-5.74585-36.19873,4.02203-70.67358,13.3277-105.7229,25.96851-76.42017,27.5799-155.14014,68.83722-255.68994,102.16321,28.1499-14.36499,43.08984-53.43622,18.95996-92.50769-29.88013-48.83942-116.64014-72.39722-279.82007,15.51367-173.52393,81.59003-249.36902,65.50201-252.81604,51.71204,13.79004-8.04401,9.19299-36.77289-10.91699-43.66791-45.96692-14.93909-71.823,31.0274-61.47998,74.69592-100.552-43.09393-243.04797-106.29785-390.71497-128.1319-103.99902-15.51373-201.67804-17.81207-275.79901-5.74585-36.19873,4.02203-70.67358,13.3277-105.72302,25.96851-76.42004,27.5799-155.14001,68.83722-255.68994,102.16321,28.1499-14.36499,43.08997-53.43622,18.95996-92.50769-29.88-48.83942-116.64001-72.39722-279.82007,15.51367-173.52393,81.59003-249.36896,65.50201-252.81598,51.71204,13.79004-8.04401,9.19305-36.77289-10.91699-43.66791-45.96698-14.93909-71.823,31.0274-61.47998,74.69592-100.552-43.09393-243.04797-106.29785-390.71497-128.1319-103.99902-15.51373-201.67804-17.81207-275.79901-5.74585-36.19867,4.02203-70.67358,13.3277-105.72302,25.96851-76.42004,27.5799-155.14001,68.83722-255.68988,102.16321,28.1499-14.36499,43.0899-53.43622,18.95996-92.50769-29.88013-48.83942-116.64014-72.39722-279.82007,15.51367-173.52393,81.59003-249.36902,65.50201-252.81604,51.71204,13.79004-8.04401,9.19299-36.77289-10.91699-43.66791-45.96692-14.93909-71.823,31.0274-61.47998,74.69592-100.552-43.09393-243.04797-106.29785-390.71497-128.1319-103.99902-15.51373-201.67798-17.81207-275.79907-5.74585-36.19873,4.02203-70.67358,13.3277-105.7229,25.96851v134.33923c8.61865,2.87299,18.38647,2.87299,29.87817-1.14905,19.53564-6.31995,24.13232-35.04895,10.34253-43.09296,2.8728-13.79004,79.29224-29.8786,252.81519,51.71198,163.7561,87.91101,249.94312,64.35303,280.396,14.93903,24.13208-39.07104,9.19312-78.14301-18.96094-92.50751,138.474,46.5415,235.00293,108.02148,340.151,125.8335,75.84497,14.93896,180.41809,13.21497,291.88806-2.87299,149.96997-22.409,294.17987-86.76202,395.30988-129.85553-8.62,33.3255,4.6001,68.37152,32.18005,76.99048v.00305c8.61871,2.87299,18.3866,2.87299,29.87823-1.14905,19.53577-6.31995,24.13239-35.04895,10.34247-43.09296,2.87292-13.79004,79.2923-29.8786,252.81531,51.71198,163.75598,87.91101,249.94299,64.35303,280.396,14.93903,24.13202-39.07104,9.19299-78.14301-18.961-92.50751,138.474,46.5415,235.00299,108.02148,340.151,125.8335,75.84497,14.93896,180.41803,13.21497,291.888-2.87299,149.96997-22.409,294.17993-86.76202,395.30994-129.85553-8.62,33.3255,4.6001,68.37152,32.18005,76.99048v.00305c8.61871,2.87299,18.3866,2.87299,29.87823-1.14905,19.53577-6.31995,24.13239-35.04895,10.34247-43.09296,2.87292-13.79004,79.2923-29.8786,252.81525,51.71198,163.7561,87.91101,249.94312,64.35303,280.396,14.93903,24.13208-39.07104,9.19312-78.14301-18.96094-92.50751,138.474,46.5415,235.00293,108.02148,340.151,125.8335,75.84497,14.93896,180.41809,13.21497,291.88806-2.87299,149.96997-22.409,294.17993-86.76202,395.30981-129.85553-8.61987,33.3255,4.6001,68.37152,32.18018,76.99048v.00305c8.61865,2.87299,18.38647,2.87299,29.87817-1.14905,19.53564-6.31995,24.13232-35.04895,10.34253-43.09296,2.8728-13.79004,79.29224-29.8786,252.81519,51.71198,163.7561,87.91101,249.94312,64.35303,280.396,14.93903,24.13208-39.07104,9.19312-78.14301-18.96094-92.50751,138.47412,46.5415,235.00293,108.02148,340.15088,125.8335,75.84521,14.93896,180.41821,13.21497,291.88818-2.87299,149.96997-22.409,294.17993-86.76202,395.30981-129.85553-8.61987,33.3255,4.6001,68.37152,32.18018,76.99048v.00305c8.61865,2.87299,18.38647,2.87299,29.87817-1.14905,19.53564-6.31995,24.13232-35.04895,10.34253-43.09296,2.8728-13.79004,79.29224-29.8786,252.81519,51.71198,163.75586,87.91101,249.94287,64.35303,280.396,14.93903,24.13184-39.07104,9.19287-78.14301-18.96094-92.50751,138.47412,46.5415,235.00293,108.02148,340.15088,125.8335,75.84521,14.93896,180.41797,13.21497,291.88818-2.87299,149.96973-22.409,294.17969-86.76202,395.31006-129.85553-8.62012,33.3255,4.6001,68.37152,32.17969,76.99048v.00305c8.61865,2.87299,18.38672,2.87299,29.87842-1.14905,19.53564-6.31995,24.13232-35.04895,10.34229-43.09296,2.87305-13.79004,79.29248-29.8786,252.81543,51.71198,163.75586,87.91101,249.94287,64.35303,280.396,14.93903,24.13184-39.07104,9.19287-78.14301-18.96094-92.50751,138.47412,46.5415,235.00293,108.02148,340.15088,125.8335,75.84521,14.93896,180.41797,13.21497,291.88818-2.87299,149.96973-22.409,294.17969-86.76202,395.31006-129.85553-8.62012,33.3255,4.6001,68.37152,32.17969,76.99048v-134.33618c-76.41992,27.5799-155.13965,68.83722-255.68994,102.16321,28.1499-14.36499,43.09033-53.43622,18.95996-92.50769ZM478.62598,662.4374c-36.19897-.57397-89.63501-20.10999-128.13208-36.198-12.63989-6.32098-27.58008-13.216-45.39209-20.685-133.87695-55.7345-222.36206-59.75659-262.58276-48.26501-39.07153,10.91711-41.36987,45.39203-28.72925,49.414-13.78979,2.29803-17.2373-24.70697-9.19312-40.2207,6.32031-12.06616,19.53564-31.0274,54.58521-39.64606,72.39697-18.3866,164.90503-25.28149,311.99707-3.44751,62.63,9.1933,117.78906,22.98328,167.203,39.07159-27.005-4.02209-48.83899,14.93872-51.71204,34.47467-2.87305,21.26001,10.91699,35.62402,32.75098,33.90002,18.38696-1.72302,21.26001-24.13202,11.49207-31.60199-6.89502-5.17102-13.79004-1.14899-14.93909,1.14996-2.29895-3.448,12.06604-14.94,25.28101,0,10.91699,12.64001,6.32104,62.62903-62.62891,62.05402Zm867.04395-89.63397c-13.21997,14.93896-28.15991,2.87299-25.28003,0,.57007,2.29797,7.46997,6.32001,14.93994,1.14899,9.76001-7.46973,6.32007-29.8783-11.5-31.60211-21.82983-2.29828-35.61987,12.06622-32.75,33.90009,2.88013,19.53601,24.71021,39.07202,51.72021,34.47504-49.98999,16.08801-104.58008,29.87799-167.21021,39.07196-144.21997,21.25903-235.57593,14.93903-307.39795-2.29895-6.89502-1.724-14.36499-4.59601-22.40894-7.46906-21.83398-9.76794-31.60205-23.55798-36.77295-33.32599-8.04407-15.51398-4.02209-42.51898,9.19287-40.2207-12.64087,4.02173-9.76794,38.4967,28.729,49.4137,40.22107,11.492,128.70605,7.47003,263.15796-48.83905,17.23999-7.4696,32.18018-14.3645,45.39014-20.68494,37.91992-16.08826,91.93994-35.62396,128.12988-36.19861,68.38013,0,72.97998,50.56311,62.06006,62.62964Zm746.95605,89.63397c-36.19904-.57397-89.63501-20.10999-128.13202-36.198-12.64001-6.32098-27.58002-13.216-45.39203-20.685-133.87695-55.7345-222.36224-59.75659-262.58295-48.26501-39.07153,10.91711-41.36987,45.39203-28.72913,49.414-13.78992,2.29803-17.23737-24.70697-9.19324-40.2207,6.32037-12.06616,19.53577-31.0274,54.58514-39.64606,72.39722-18.3866,164.90521-25.28149,311.99719-3.44751,62.63,9.1933,117.789,22.98328,167.203,39.07159-27.005-4.02209-48.83899,14.93872-51.71198,34.47467-2.87305,21.26001,10.91699,35.62402,32.75098,33.90002,18.38696-1.72302,21.26001-24.13202,11.492-31.60199-6.89502-5.17102-13.79004-1.14899-14.93903,1.14996-2.29901-3.448,12.06598-14.94,25.28101,0,10.91699,12.64001,6.32098,62.62903-62.62897,62.05402Zm867.04401-89.63397c-13.22009,14.93896-28.16003,2.87299-25.28003,0,.56995,2.29797,7.46997,6.32001,14.93994,1.14899,9.76001-7.46973,6.32007-29.8783-11.5-31.60211-21.82996-2.29828-35.62,12.06622-32.75,33.90009,2.88,19.53601,24.71008,39.07202,51.72009,34.47504-49.98999,16.08801-104.58008,29.87799-167.21008,39.07196-144.21997,21.25903-235.57599,14.93903-307.39795-2.29895-6.89502-1.724-14.36499-4.59601-22.409-7.46906-21.83405-9.76794-31.60199-23.55798-36.77301-33.32599-8.04401-15.51398-4.02203-42.51898,9.19299-40.2207-12.64099,4.02173-9.76801,38.4967,28.729,49.4137,40.22101,11.492,128.70599,7.47003,263.15796-48.83905,17.23999-7.4696,32.18005-14.3645,45.39001-20.68494,37.92004-16.08826,91.94006-35.62396,128.13-36.19861,68.38,0,72.97998,50.56311,62.06006,62.62964Zm746.95599,89.63397c-36.19897-.57397-89.63501-20.10999-128.13208-36.198-12.63989-6.32098-27.57996-13.216-45.39197-20.685-133.87695-55.7345-222.3623-59.75659-262.58301-48.26501-39.07147,10.91711-41.36981,45.39203-28.72906,49.414-13.78992,2.29803-17.23737-24.70697-9.19324-40.2207,6.32031-12.06616,19.53571-31.0274,54.58514-39.64606,72.39716-18.3866,164.90515-25.28149,311.99719-3.44751,62.63,9.1933,117.78906,22.98328,167.203,39.07159-27.005-4.02209-48.83899,14.93872-51.71204,34.47467-2.87305,21.26001,10.91699,35.62402,32.75098,33.90002,18.38696-1.72302,21.26001-24.13202,11.49207-31.60199-6.89502-5.17102-13.79004-1.14899-14.93909,1.14996-2.29895-3.448,12.06604-14.94,25.28101,0,10.91699,12.64001,6.32104,62.62903-62.62891,62.05402Zm867.04395-89.63397c-13.21997,14.93896-28.15991,2.87299-25.28003,0,.57007,2.29797,7.46997,6.32001,14.93994,1.14899,9.76001-7.46973,6.32007-29.8783-11.5-31.60211-21.82983-2.29828-35.61987,12.06622-32.75,33.90009,2.88013,19.53601,24.71021,39.07202,51.72021,34.47504-49.98999,16.08801-104.58008,29.87799-167.21021,39.07196-144.21997,21.25903-235.57593,14.93903-307.39795-2.29895-6.89502-1.724-14.36499-4.59601-22.40894-7.46906-21.83398-9.76794-31.60205-23.55798-36.77295-33.32599-8.04407-15.51398-4.02209-42.51898,9.19287-40.2207-12.64087,4.02173-9.76794,38.4967,28.729,49.4137,40.22107,11.492,128.70605,7.47003,263.15796-48.83905,17.23999-7.4696,32.18018-14.3645,45.39014-20.68494,37.91992-16.08826,91.93994-35.62396,128.12988-36.19861,68.38013,0,72.97998,50.56311,62.06006,62.62964Zm746.95605,89.63397c-36.19897-.57397-89.63501-20.10999-128.13208-36.198-12.63989-6.32098-27.58008-13.216-45.39209-20.685-133.87695-55.7345-222.3623-59.75659-262.58301-48.26501-39.07129,10.91711-41.36963,45.39203-28.729,49.414-13.78979,2.29803-17.2373-24.70697-9.19312-40.2207,6.32031-12.06616,19.53564-31.0274,54.58521-39.64606,72.39697-18.3866,164.90503-25.28149,311.99707-3.44751,62.62988,9.1933,117.78906,22.98328,167.20312,39.07159-27.00513-4.02209-48.83911,14.93872-51.71216,34.47467-2.87305,21.26001,10.91699,35.62402,32.75098,33.90002,18.38696-1.72302,21.26001-24.13202,11.49194-31.60199-6.89502-5.17102-13.79004-1.14899-14.93896,1.14996-2.29883-3.448,12.06592-14.94,25.28101,0,10.91699,12.64001,6.32104,62.62903-62.62891,62.05402Zm867.04395-89.63397c-13.21997,14.93896-28.15991,2.87299-25.28003,0,.57007,2.29797,7.46997,6.32001,14.93994,1.14899,9.76001-7.46973,6.32007-29.8783-11.5-31.60211-21.82983-2.29828-35.61987,12.06622-32.75,33.90009,2.88013,19.53601,24.71021,39.07202,51.72021,34.47504-49.98999,16.08801-104.58008,29.87799-167.21021,39.07196-144.21997,21.25903-235.57593,14.93903-307.39795-2.29895-6.89502-1.724-14.36499-4.59601-22.40894-7.46906-21.83398-9.76794-31.60205-23.55798-36.77295-33.32599-8.04395-15.51398-4.02197-42.51898,9.19287-40.2207-12.64087,4.02173-9.76807,38.4967,28.729,49.4137,40.22119,11.492,128.70605,7.47003,263.15796-48.83905,17.23999-7.4696,32.18018-14.3645,45.39014-20.68494,37.91992-16.08826,91.93994-35.62396,128.12988-36.19861,68.38013,0,72.97998,50.56311,62.06006,62.62964Zm746.9563,89.63397c-36.19922-.57397-89.63525-20.10999-128.13232-36.198-12.64014-6.32098-27.58008-13.216-45.39209-20.685-133.87695-55.7345-222.3623-59.75659-262.58301-48.26501-39.07129,10.91711-41.36963,45.39203-28.729,49.414-13.78979,2.29803-17.2373-24.70697-9.19312-40.2207,6.32031-12.06616,19.53564-31.0274,54.58521-39.64606,72.39697-18.3866,164.90527-25.28149,311.99707-3.44751,62.62988,9.1933,117.78906,22.98328,167.20312,39.07159-27.00488-4.02209-48.83887,14.93872-51.71191,34.47467-2.87305,21.26001,10.91699,35.62402,32.75098,33.90002,18.38672-1.72302,21.25977-24.13202,11.4917-31.60199-6.89502-5.17102-13.79004-1.14899-14.93896,1.14996-2.29883-3.448,12.06592-14.94,25.28125,0,10.91699,12.64001,6.3208,62.62903-62.62891,62.05402Zm867.04395-89.63397c-13.22021,14.93896-28.16016,2.87299-25.28027,0,.56982,2.29797,7.47021,6.32001,14.93994,1.14899,9.76025-7.46973,6.32031-29.8783-11.5-31.60211-21.83008-2.29828-35.62012,12.06622-32.75,33.90009,2.87988,19.53601,24.70996,39.07202,51.72021,34.47504-49.99023,16.08801-104.58008,29.87799-167.20996,39.07196-144.22021,21.25903-235.57617,14.93903-307.39795-2.29895-6.89502-1.724-14.36523-4.59601-22.40918-7.46906-21.83398-9.76794-31.60205-23.55798-36.77295-33.32599-8.04395-15.51398-4.02197-42.51898,9.19287-40.2207-12.64111,4.02173-9.76807,38.4967,28.729,49.4137,40.22119,11.492,128.70605,7.47003,263.1582-48.83905,17.23975-7.4696,32.17969-14.3645,45.38965-20.68494,37.92041-16.08826,91.94043-35.62396,128.13037-36.19861,68.37988,0,72.97998,50.56311,62.06006,62.62964Zm746.95605,89.63397c-36.19922-.57397-89.63525-20.10999-128.13232-36.198-12.64014-6.32098-27.58008-13.216-45.39209-20.685-133.87695-55.7345-222.3623-59.75659-262.58301-48.26501-39.07129,10.91711-41.36963,45.39203-28.729,49.414-13.79004,2.29803-17.2373-24.70697-9.19336-40.2207,6.32031-12.06616,19.53564-31.0274,54.58545-39.64606,72.39697-18.3866,164.90527-25.28149,311.99707-3.44751,62.62988,9.1933,117.78906,22.98328,167.20312,39.07159-27.00488-4.02209-48.83887,14.93872-51.71191,34.47467-2.87305,21.26001,10.91699,35.62402,32.75098,33.90002,18.38672-1.72302,21.25977-24.13202,11.4917-31.60199-6.89502-5.17102-13.79004-1.14899-14.93896,1.14996-2.29883-3.448,12.06592-14.94,25.28125,0,10.91699,12.64001,6.3208,62.62903-62.62891,62.05402Zm867.04395-89.63397c-13.22021,14.93896-28.16016,2.87299-25.28027,0,.56982,2.29797,7.47021,6.32001,14.93994,1.14899,9.76025-7.46973,6.32031-29.8783-11.5-31.60211-21.83008-2.29828-35.62012,12.06622-32.75,33.90009,2.87988,19.53601,24.70996,39.07202,51.72021,34.47504-49.99023,16.08801-104.58008,29.87799-167.20996,39.07196-144.22021,21.25903-235.57617,14.93903-307.39795-2.29895-6.89502-1.724-14.36523-4.59601-22.40918-7.46906-21.83398-9.76794-31.60205-23.55798-36.77295-33.32599-8.04395-15.51398-4.02197-42.51898,9.19287-40.2207-12.64111,4.02173-9.76807,38.4967,28.729,49.4137,40.22119,11.492,128.70605,7.47003,263.1582-48.83905,17.23975-7.4696,32.17969-14.3645,45.38965-20.68494,37.92041-16.08826,91.94043-35.62396,128.13037-36.19861,68.37988,0,72.97998,50.56311,62.06006,62.62964Z"/>
      <path class="cls-1" d="m9654.12183,771.85293c-19.53564,6.32001-24.13232,35.04901-10.34277,43.09302-2.87256,13.78998-79.29199,29.8786-252.81494-51.71204-163.75635-87.91095-249.94336-64.35297-280.396-14.93896-24.13232,39.07098-9.19336,78.14301,18.96094,92.50751-138.47412-46.5415-235.00293-108.02155-340.15088-125.8335-75.84521-14.93903-180.41846-13.21503-291.88818,2.87299-149.97021,22.409-294.18018,86.76196-395.31006,129.85547,8.62012-33.3255-4.6001-68.37146-32.18018-76.99048v-.00299c-8.61865-2.87299-18.38623-2.87299-29.87793,1.14899-19.53564,6.32001-24.13232,35.04901-10.34277,43.09302-2.87256,13.78998-79.29199,29.8786-252.81494-51.71204-163.75635-87.91095-249.94336-64.35297-280.396-14.93896-24.13232,39.07098-9.19336,78.14301,18.96094,92.50751-138.47412-46.5415-235.00293-108.02155-340.15088-125.8335-75.84521-14.93903-180.41846-13.21503-291.88818,2.87299-149.97021,22.409-294.18018,86.76196-395.31006,129.85547,8.62012-33.3255-4.6001-68.37146-32.17993-76.99048v-.00299c-8.6189-2.87299-18.38672-2.87299-29.87817,1.14899-19.53589,6.32001-24.13257,35.04901-10.34253,43.09302-2.8728,13.78998-79.29224,29.8786-252.81543-51.71204-163.75586-87.91095-249.94287-64.35297-280.396-14.93896-24.13208,39.07098-9.19287,78.14301,18.96118,92.50751-138.47412-46.5415-235.00317-108.02155-340.15112-125.8335-75.84497-14.93903-180.41797-13.21503-291.88794,2.87299-149.96997,22.409-294.17993,86.76196-395.31006,129.85547,8.62012-33.3255-4.6001-68.37146-32.17993-76.99048v-.00299c-8.6189-2.87299-18.38672-2.87299-29.87817,1.14899-19.53589,6.32001-24.13257,35.04901-10.34253,43.09302-2.8728,13.78998-79.29224,29.8786-252.81543-51.71204-163.75586-87.91095-249.94287-64.35297-280.396-14.93896-24.13196,39.07098-9.19287,78.14301,18.96106,92.50751-138.474-46.5415-235.00305-108.02155-340.151-125.8335-75.84497-14.93903-180.41797-13.21503-291.88794,2.87299-149.96997,22.409-294.17999,86.76196-395.31,129.85547,8.62-33.3255-4.6001-68.37146-32.18005-76.99048v-.00299c-8.61871-2.87299-18.3866-2.87299-29.87817,1.14899-19.53583,6.32001-24.13245,35.04901-10.34253,43.09302-2.87286,13.78998-79.2923,29.8786-252.81531-51.71204-163.75598-87.91095-249.94299-64.35297-280.396-14.93896-24.13202,39.07098-9.19299,78.14301,18.961,92.50751-138.474-46.5415-235.00299-108.02155-340.151-125.8335-75.84497-14.93903-180.41803-13.21503-291.888,2.87299-149.96997,22.409-294.17993,86.76196-395.30994,129.85547,8.62-33.3255-4.6001-68.37146-32.18005-76.99048v-.00299c-8.61871-2.87299-18.3866-2.87299-29.87817,1.14899-19.53583,6.32001-24.13239,35.04901-10.34253,43.09302-2.87286,13.78998-79.2923,29.8786-252.81537-51.71204-163.75586-87.91095-249.94287-64.35297-280.396-14.93896-24.13196,39.07098-9.19287,78.14301,18.96106,92.50751-138.474-46.5415-235.00305-108.02155-340.151-125.8335-75.84497-14.93903-180.41797-13.21503-291.88794,2.87299-149.96997,22.409-294.17993,86.76196-395.31006,129.85547,8.62012-33.3255-4.6001-68.37146-32.17993-76.99048v134.33618c76.41992-27.5799,155.13989-68.83716,255.68994-102.16321-28.1499,14.36505-43.09009,53.43622-18.95996,92.50775,29.87988,48.83942,116.63989,72.39716,279.82007-15.51373,173.52393-81.58997,249.3689-65.50201,252.81592-51.71198-13.79004,8.04401-9.19312,36.77289,10.91699,43.66791,45.96704,14.93909,71.823-31.0274,61.47998-74.69592,100.552,43.09393,243.04797,106.29779,390.71509,128.13196,103.9989,15.51367,201.67792,17.81201,275.79895,5.74585,36.19867-4.02209,70.67358-13.32788,105.72296-25.96863,76.42004-27.5799,155.14001-68.83716,255.68994-102.16321-28.1499,14.36505-43.08997,53.43622-18.95996,92.50775,29.88,48.83942,116.64001,72.39716,279.82007-15.51373,173.52393-81.58997,249.36896-65.50201,252.81598-51.71198-13.79004,8.04401-9.19305,36.77289,10.91699,43.66791,45.96698,14.93909,71.823-31.0274,61.47998-74.69592,100.552,43.09393,243.04797,106.29779,390.71503,128.13196,103.99896,15.51367,201.67798,17.81201,275.79901,5.74585,36.19867-4.02209,70.67358-13.32788,105.72296-25.96863,76.42004-27.5799,155.14001-68.83716,255.69-102.16321-28.1499,14.36505-43.09003,53.43622-18.95996,92.50775,29.87988,48.83942,116.63989,72.39716,279.82007-15.51373,173.52393-81.58997,249.3689-65.50201,252.81592-51.71198-13.79004,8.04401-9.19312,36.77289,10.91699,43.66791,45.96704,14.93909,71.823-31.0274,61.47998-74.69592,100.552,43.09393,243.04797,106.29779,390.71509,128.13196,103.99878,15.51367,201.67798,17.81201,275.79907,5.74585,36.19849-4.02209,70.67334-13.32788,105.7229-25.96863,76.41992-27.5799,155.13989-68.83716,255.68994-102.16321-28.1499,14.36505-43.09009,53.43622-18.95996,92.50775,29.87988,48.83942,116.63989,72.39716,279.82007-15.51373,173.52393-81.58997,249.3689-65.50201,252.81592-51.71198-13.79004,8.04401-9.19312,36.77289,10.91699,43.66791,45.96704,14.93909,71.823-31.0274,61.47998-74.69592,100.552,43.09393,243.04785,106.29779,390.71509,128.13196,103.99878,15.51367,201.67798,17.81201,275.79907,5.74585,36.19849-4.02209,70.67334-13.32788,105.7229-25.96863,76.42017-27.5799,155.13989-68.83716,255.6897-102.16321-28.1499,14.36505-43.08984,53.43622-18.95996,92.50775,29.88037,48.83942,116.64014,72.39716,279.82031-15.51373,173.52393-81.58997,249.36914-65.50201,252.81592-51.71198-13.79004,8.04401-9.19287,36.77289,10.91699,43.66791,45.9668,14.93909,71.82275-31.0274,61.47998-74.69592,100.55176,43.09393,243.04785,106.29779,390.71484,128.13196,103.99902,15.51367,201.67822,17.81201,275.79932,5.74585,36.19873-4.02209,70.67334-13.32788,105.72266-25.96863,76.42041-27.5799,155.14014-68.83716,255.68994-102.16321-28.1499,14.36505-43.08984,53.43622-18.95996,92.50775,29.88037,48.83942,116.64014,72.39716,279.82031-15.51373,173.52393-81.58997,249.36914-65.50201,252.81592-51.71198-13.79004,8.04401-9.19287,36.77289,10.91699,43.66791,45.9668,14.93909,71.82275-31.0274,61.47998-74.69592,100.55176,43.09393,243.04785,106.29779,390.71484,128.13196,103.99902,15.51367,201.67822,17.81201,275.79932,5.74585,36.19873-4.02209,70.67334-13.32788,105.72266-25.96863v-134.33917c-8.61865-2.87299-18.38623-2.87299-29.87793,1.14899ZM795.79688,841.95162c12.64111-4.02167,9.76807-38.4967-28.729-49.4137-40.22095-11.492-128.70593-7.46997-263.15796,48.83911-17.23999,7.4696-32.17993,14.3645-45.38989,20.68488-37.92017,16.08832-91.94019,35.62402-128.13013,36.19861-68.37988,0-72.97998-50.56311-62.06006-62.62958,13.22021-14.93903,28.16016-2.87299,25.28003,0-.56982-2.29803-7.46997-6.32001-14.93994-1.14899-9.76001,7.46967-6.32007,29.8783,11.5,31.60205,21.83008,2.29834,35.62012-12.06616,32.75-33.90009-2.87988-19.53601-24.70996-39.07196-51.71997-34.47498,49.98999-16.08801,104.58008-29.87799,167.20996-39.07202,144.21997-21.25897,235.57605-14.93896,307.39795,2.29901,6.89502,1.724,14.36499,4.59601,22.40906,7.46899,21.83411,9.76801,31.60193,23.55798,36.77307,33.32599,8.04395,15.51404,4.02197,42.51904-9.19312,40.2207Zm813.60645,0c-6.32037,12.06622-19.53577,31.0274-54.58514,39.64612-72.39722,18.3866-164.90521,25.28149-311.99713,3.44751-62.63013-9.1933-117.78906-22.98334-167.20312-39.07159,27.005,4.02209,48.83911-14.93872,51.71204-34.47473,2.87292-21.26001-10.91699-35.62396-32.7511-33.89996-18.38696,1.72296-21.26001,24.13196-11.49194,31.60199,6.89502,5.17096,13.79004,1.14899,14.93896-1.15002,2.29907,3.448-12.06592,14.94-25.28101,0-10.91699-12.64001-6.32092-62.62897,62.62915-62.05402,36.19897.57404,89.63501,20.11005,128.13196,36.198,12.64001,6.32104,27.57996,13.216,45.39197,20.685,133.87701,55.73456,222.3623,59.75665,262.58301,48.26501,39.07153-10.91705,41.36987-45.39197,28.72913-49.414,13.78986-2.29797,17.23737,24.70703,9.19324,40.2207Zm800.39362,0c12.64099-4.02167,9.76801-38.4967-28.729-49.4137-40.22101-11.492-128.70599-7.46997-263.15796,48.83911-17.23999,7.4696-32.18005,14.3645-45.39001,20.68488-37.92004,16.08832-91.94006,35.62402-128.13,36.19861-68.38,0-72.97998-50.56311-62.06006-62.62958,13.22009-14.93903,28.16003-2.87299,25.28003,0-.56995-2.29803-7.46997-6.32001-14.93994-1.14899-9.76001,7.46967-6.32007,29.8783,11.5,31.60205,21.82996,2.29834,35.62-12.06616,32.75-33.90009-2.88-19.53601-24.71008-39.07196-51.72009-34.47498,49.98999-16.08801,104.58008-29.87799,167.21008-39.07202,144.21997-21.25897,235.57599-14.93896,307.39795,2.29901,6.89502,1.724,14.36499,4.59601,22.409,7.46899,21.83405,9.76801,31.60199,23.55798,36.77301,33.32599,8.04401,15.51404,4.02203,42.51904-9.19299,40.2207Zm813.60638,0c-6.32037,12.06622-19.53577,31.0274-54.58514,39.64612-72.39722,18.3866-164.90521,25.28149-311.99719,3.44751-62.63-9.1933-117.789-22.98334-167.20306-39.07159,27.005,4.02209,48.83905-14.93872,51.71204-34.47473,2.87299-21.26001-10.91699-35.62396-32.75104-33.89996-18.38696,1.72296-21.26001,24.13196-11.492,31.60199,6.89502,5.17096,13.79004,1.14899,14.93903-1.15002,2.29901,3.448-12.06598,14.94-25.28101,0-10.91699-12.64001-6.32098-62.62897,62.62903-62.05402,36.19897.57404,89.63501,20.11005,128.13202,36.198,12.63995,6.32104,27.57996,13.216,45.39197,20.685,133.87701,55.73456,222.3623,59.75665,262.58301,48.26501,39.07147-10.91705,41.36981-45.39197,28.72906-49.414,13.78992-2.29797,17.23743,24.70703,9.1933,40.2207Zm800.39355,0c12.64111-4.02167,9.76807-38.4967-28.729-49.4137-40.22095-11.492-128.70593-7.46997-263.15796,48.83911-17.23999,7.4696-32.17993,14.3645-45.38989,20.68488-37.92017,16.08832-91.94019,35.62402-128.13013,36.19861-68.37988,0-72.97998-50.56311-62.06006-62.62958,13.22021-14.93903,28.16016-2.87299,25.28003,0-.56982-2.29803-7.46997-6.32001-14.93994-1.14899-9.76001,7.46967-6.32007,29.8783,11.5,31.60205,21.83008,2.29834,35.62012-12.06616,32.75-33.90009-2.87988-19.53601-24.70996-39.07196-51.71997-34.47498,49.98999-16.08801,104.58008-29.87799,167.20996-39.07202,144.21997-21.25897,235.57605-14.93896,307.39795,2.29901,6.89502,1.724,14.36499,4.59601,22.40906,7.46899,21.83411,9.76801,31.60193,23.55798,36.77307,33.32599,8.04395,15.51404,4.02197,42.51904-9.19312,40.2207Zm813.60645,0c-6.32031,12.06622-19.53589,31.0274-54.58521,39.64612-72.39722,18.3866-164.90527,25.28149-311.99707,3.44751-62.63013-9.1933-117.78906-22.98334-167.20312-39.07159,27.005,4.02209,48.83911-14.93872,51.71204-34.47473,2.87292-21.26001-10.91699-35.62396-32.7511-33.89996-18.38696,1.72296-21.26001,24.13196-11.49194,31.60199,6.89502,5.17096,13.79004,1.14899,14.93896-1.15002,2.29907,3.448-12.06592,14.94-25.28101,0-10.91699-12.64001-6.32092-62.62897,62.62915-62.05402,36.19897.57404,89.63501,20.11005,128.13208,36.198,12.63989,6.32104,27.57983,13.216,45.39185,20.685,133.87695,55.73456,222.3623,59.75665,262.58301,48.26501,39.07153-10.91705,41.36987-45.39197,28.729-49.414,13.79004-2.29797,17.23755,24.70703,9.19336,40.2207Zm800.39355,0c12.64111-4.02167,9.76807-38.4967-28.729-49.4137-40.22095-11.492-128.70581-7.46997-263.15796,48.83911-17.23999,7.4696-32.17993,14.3645-45.38989,20.68488-37.92017,16.08832-91.94019,35.62402-128.13013,36.19861-68.37988,0-72.97998-50.56311-62.06006-62.62958,13.22021-14.93903,28.16016-2.87299,25.28003,0-.56982-2.29803-7.46997-6.32001-14.93994-1.14899-9.76001,7.46967-6.32007,29.8783,11.5,31.60205,21.83008,2.29834,35.62012-12.06616,32.75-33.90009-2.87988-19.53601-24.70996-39.07196-51.71997-34.47498,49.98999-16.08801,104.58008-29.87799,167.20996-39.07202,144.21997-21.25897,235.57617-14.93896,307.39795,2.29901,6.89502,1.724,14.36499,4.59601,22.40918,7.46899,21.83398,9.76801,31.60181,23.55798,36.77295,33.32599,8.04395,15.51404,4.02197,42.51904-9.19312,40.2207Zm813.60645,0c-6.32031,12.06622-19.53589,31.0274-54.58521,39.64612-72.39722,18.3866-164.90527,25.28149-311.99707,3.44751-62.63013-9.1933-117.78906-22.98334-167.20312-39.07159,27.00488,4.02209,48.83911-14.93872,51.71191-34.47473,2.87305-21.26001-10.91699-35.62396-32.75098-33.89996-18.38696,1.72296-21.26001,24.13196-11.49194,31.60199,6.89502,5.17096,13.79004,1.14899,14.93896-1.15002,2.29907,3.448-12.06592,14.94-25.28101,0-10.91699-12.64001-6.3208-62.62897,62.62915-62.05402,36.19897.57404,89.63501,20.11005,128.13208,36.198,12.63989,6.32104,27.57983,13.216,45.39185,20.685,133.87695,55.73456,222.3623,59.75665,262.58301,48.26501,39.07153-10.91705,41.36987-45.39197,28.729-49.414,13.79004-2.29797,17.23755,24.70703,9.19336,40.2207Zm800.3938,0c12.64062-4.02167,9.76758-38.4967-28.729-49.4137-40.22119-11.492-128.70605-7.46997-263.1582,48.83911-17.23975,7.4696-32.18018,14.3645-45.39014,20.68488-37.91992,16.08832-91.93994,35.62402-128.12988,36.19861-68.37988,0-72.97998-50.56311-62.06006-62.62958,13.22021-14.93903,28.16016-2.87299,25.28027,0-.57031-2.29803-7.47021-6.32001-14.93994-1.14899-9.76025,7.46967-6.32031,29.8783,11.5,31.60205,21.82959,2.29834,35.61963-12.06616,32.75-33.90009-2.88037-19.53601-24.71045-39.07196-51.72021-34.47498,49.98975-16.08801,104.58008-29.87799,167.20996-39.07202,144.22021-21.25897,235.57617-14.93896,307.39795,2.29901,6.89502,1.724,14.36523,4.59601,22.40918,7.46899,21.83398,9.76801,31.60205,23.55798,36.77295,33.32599,8.04395,15.51404,4.02197,42.51904-9.19287,40.2207Zm813.60645,0c-6.3208,12.06622-19.53613,31.0274-54.58545,39.64612-72.39697,18.3866-164.90527,25.28149-311.99707,3.44751-62.62988-9.1933-117.78906-22.98334-167.20312-39.07159,27.00488,4.02209,48.83887-14.93872,51.71191-34.47473,2.87305-21.26001-10.91699-35.62396-32.75098-33.89996-18.38672,1.72296-21.25977,24.13196-11.4917,31.60199,6.89453,5.17096,13.79004,1.14899,14.93896-1.15002,2.29883,3.448-12.06592,14.94-25.28125,0-10.91699-12.64001-6.3208-62.62897,62.62891-62.05402,36.19922.57404,89.63525,20.11005,128.13232,36.198,12.63965,6.32104,27.58008,13.216,45.3916,20.685,133.87744,55.73456,222.3623,59.75665,262.58301,48.26501,39.07178-10.91705,41.37012-45.39197,28.72949-49.414,13.78955-2.29797,17.2373,24.70703,9.19336,40.2207Zm800.39355,0c12.64062-4.02167,9.76758-38.4967-28.729-49.4137-40.22119-11.492-128.70605-7.46997-263.1582,48.83911-17.23975,7.4696-32.18018,14.3645-45.39014,20.68488-37.91992,16.08832-91.93994,35.62402-128.12988,36.19861-68.37988,0-72.97998-50.56311-62.06006-62.62958,13.22021-14.93903,28.16016-2.87299,25.28027,0-.57031-2.29803-7.47021-6.32001-14.93994-1.14899-9.76025,7.46967-6.32031,29.8783,11.5,31.60205,21.82959,2.29834,35.61963-12.06616,32.75-33.90009-2.88037-19.53601-24.71045-39.07196-51.72021-34.47498,49.98975-16.08801,104.58008-29.87799,167.20996-39.07202,144.22021-21.25897,235.57617-14.93896,307.39795,2.29901,6.89502,1.724,14.36523,4.59601,22.40918,7.46899,21.83398,9.76801,31.60205,23.55798,36.77295,33.32599,8.04395,15.51404,4.02197,42.51904-9.19287,40.2207Zm813.60645,0c-6.3208,12.06622-19.53613,31.0274-54.58545,39.64612-72.39697,18.3866-164.90527,25.28149-311.99707,3.44751-62.62988-9.1933-117.78906-22.98334-167.20312-39.07159,27.00488,4.02209,48.83887-14.93872,51.71191-34.47473,2.87305-21.26001-10.91699-35.62396-32.75098-33.89996-18.38672,1.72296-21.25977,24.13196-11.4917,31.60199,6.89453,5.17096,13.79004,1.14899,14.93896-1.15002,2.29883,3.448-12.06592,14.94-25.28125,0-10.91699-12.64001-6.3208-62.62897,62.62891-62.05402,36.19922.57404,89.63525,20.11005,128.13232,36.198,12.63965,6.32104,27.58008,13.216,45.3916,20.685,133.87744,55.73456,222.3623,59.75665,262.58301,48.26501,39.07178-10.91705,41.37012-45.39197,28.72949-49.414,13.78955-2.29797,17.2373,24.70703,9.19336,40.2207Z"/>
      <path class="cls-1" d="m9447.26978,982.52492c-29.87988-48.83948-116.63965-72.39722-279.81982,15.51367-173.52393,81.58997-249.36914,65.50195-252.81592,51.71191,13.79004-8.04395,9.19287-36.77295-10.91699-43.66785-45.96729-14.93909-71.82324,31.02734-61.47998,74.69592-100.55225-43.09399-243.04834-106.29785-390.71533-128.13196-103.99902-15.51367-201.67773-17.81201-275.79883-5.74573-36.19873,4.02197-70.67334,13.32764-105.72314,25.96851-76.41992,27.57983-155.13965,68.83716-255.68994,102.16309,28.1499-14.36499,43.09033-53.43616,18.95996-92.50757-29.87988-48.83948-116.63965-72.39722-279.81982,15.51367-173.52393,81.58997-249.36914,65.50195-252.81592,51.71191,13.79004-8.04395,9.19287-36.77295-10.91699-43.66785-45.96729-14.93909-71.82324,31.02734-61.47998,74.69592-100.55225-43.09399-243.04834-106.29785-390.71533-128.13196-103.99902-15.51367-201.67773-17.81201-275.79883-5.74573-36.19873,4.02197-70.67358,13.32764-105.7229,25.96851-76.42017,27.57983-155.14014,68.83716-255.68994,102.16309,28.1499-14.36499,43.08984-53.43616,18.95996-92.50757-29.88013-48.83948-116.64014-72.39722-279.82007,15.51367-173.52393,81.58997-249.36914,65.50195-252.81592,51.71191,13.79004-8.04395,9.19287-36.77295-10.91699-43.66785-45.96704-14.93909-71.82324,31.02734-61.47998,74.69592-100.55225-43.09399-243.0481-106.29785-390.71509-128.13196-103.99902-15.51367-201.67798-17.81201-275.79907-5.74573-36.19873,4.02197-70.67358,13.32764-105.7229,25.96851-76.42017,27.57983-155.14014,68.83716-255.68994,102.16309,28.1499-14.36499,43.08984-53.43616,18.95996-92.50757-29.88013-48.83948-116.64014-72.39722-279.82007,15.51367-173.52393,81.58997-249.36902,65.50195-252.81604,51.71191,13.79004-8.04395,9.19299-36.77295-10.91699-43.66785-45.96692-14.93909-71.823,31.02734-61.47998,74.69592-100.552-43.09399-243.04797-106.29785-390.71497-128.13196-103.99902-15.51367-201.67804-17.81201-275.79901-5.74573-36.19873,4.02197-70.67358,13.32764-105.72302,25.96851-76.42004,27.57983-155.14001,68.83716-255.68994,102.16309,28.1499-14.36499,43.08997-53.43616,18.95996-92.50757-29.88-48.83948-116.64001-72.39722-279.82007,15.51367-173.52393,81.58997-249.36896,65.50195-252.81598,51.71191,13.79004-8.04395,9.19305-36.77295-10.91699-43.66785-45.96698-14.93909-71.823,31.02734-61.47998,74.69592-100.552-43.09399-243.04797-106.29785-390.71497-128.13196-103.99902-15.51367-201.67804-17.81201-275.79901-5.74573-36.19867,4.02197-70.67358,13.32764-105.72302,25.96851-76.42004,27.57983-155.14001,68.83716-255.68988,102.16309,28.1499-14.36499,43.0899-53.43616,18.95996-92.50757-29.88013-48.83948-116.64014-72.39722-279.82007,15.51367-173.52393,81.58997-249.36902,65.50195-252.81604,51.71191,13.79004-8.04395,9.19299-36.77295-10.91699-43.66785-45.96692-14.93909-71.823,31.02734-61.47998,74.69592-100.552-43.09399-243.04797-106.29785-390.71497-128.13196-103.99902-15.51367-201.67798-17.81201-275.79907-5.74573-36.19873,4.02197-70.67358,13.32764-105.7229,25.96851v134.33911c8.61865,2.87305,18.38647,2.87305,29.87817-1.14893,19.53564-6.32007,24.13232-35.04907,10.34253-43.09302,2.8728-13.79004,79.29224-29.87866,252.81519,51.71191,163.7561,87.91113,249.94312,64.35303,280.396,14.93896,24.13208-39.07092,9.19312-78.14294-18.96094-92.50745,138.474,46.5415,235.00293,108.02161,340.151,125.83362,75.84497,14.93896,180.41809,13.21484,291.88806-2.87305,149.96997-22.40906,294.17987-86.76196,395.30988-129.85547-8.62,33.32544,4.6001,68.37146,32.18005,76.99048v.00293c8.61871,2.87305,18.3866,2.87305,29.87823-1.14893,19.53577-6.32007,24.13239-35.04907,10.34247-43.09302,2.87292-13.79004,79.2923-29.87866,252.81531,51.71191,163.75598,87.91113,249.94299,64.35303,280.396,14.93896,24.13202-39.07092,9.19299-78.14294-18.961-92.50745,138.474,46.5415,235.00299,108.02161,340.151,125.83362,75.84497,14.93896,180.41803,13.21484,291.888-2.87305,149.96997-22.40906,294.17993-86.76196,395.30994-129.85547-8.62,33.32544,4.6001,68.37146,32.18005,76.99048v.00293c8.61871,2.87305,18.3866,2.87305,29.87823-1.14893,19.53577-6.32007,24.13239-35.04907,10.34247-43.09302,2.87292-13.79004,79.2923-29.87866,252.81525,51.71191,163.7561,87.91113,249.94312,64.35303,280.396,14.93896,24.13208-39.07092,9.19312-78.14294-18.96094-92.50745,138.474,46.5415,235.00293,108.02161,340.151,125.83362,75.84497,14.93896,180.41809,13.21484,291.88806-2.87305,149.96997-22.40906,294.17993-86.76196,395.30981-129.85547-8.61987,33.32544,4.6001,68.37146,32.18018,76.99048v.00293c8.61865,2.87305,18.38647,2.87305,29.87817-1.14893,19.53564-6.32007,24.13232-35.04907,10.34253-43.09302,2.8728-13.79004,79.29224-29.87866,252.81519,51.71191,163.7561,87.91113,249.94312,64.35303,280.396,14.93896,24.13208-39.07092,9.19312-78.14294-18.96094-92.50745,138.47412,46.5415,235.00293,108.02161,340.15088,125.83362,75.84521,14.93896,180.41821,13.21484,291.88818-2.87305,149.96997-22.40906,294.17993-86.76196,395.30981-129.85547-8.61987,33.32544,4.6001,68.37146,32.18018,76.99048v.00293c8.61865,2.87305,18.38647,2.87305,29.87817-1.14893,19.53564-6.32007,24.13232-35.04907,10.34253-43.09302,2.8728-13.79004,79.29224-29.87866,252.81519,51.71191,163.75586,87.91113,249.94287,64.35303,280.396,14.93896,24.13184-39.07092,9.19287-78.14294-18.96094-92.50745,138.47412,46.5415,235.00293,108.02161,340.15088,125.83362,75.84521,14.93896,180.41797,13.21484,291.88818-2.87305,149.96973-22.40906,294.17969-86.76196,395.31006-129.85547-8.62012,33.32544,4.6001,68.37146,32.17969,76.99048v.00293c8.61865,2.87305,18.38672,2.87305,29.87842-1.14893,19.53564-6.32007,24.13232-35.04907,10.34229-43.09302,2.87305-13.79004,79.29248-29.87866,252.81543,51.71191,163.75586,87.91113,249.94287,64.35303,280.396,14.93896,24.13184-39.07092,9.19287-78.14294-18.96094-92.50745,138.47412,46.5415,235.00293,108.02161,340.15088,125.83362,75.84521,14.93896,180.41797,13.21484,291.88818-2.87305,149.96973-22.40906,294.17969-86.76196,395.31006-129.85547-8.62012,33.32544,4.6001,68.37146,32.17969,76.99048v-134.33618c-76.41992,27.57983-155.13965,68.83716-255.68994,102.16309,28.1499-14.36499,43.09033-53.43616,18.95996-92.50757ZM478.62598,1131.91555c-36.19897-.57397-89.63501-20.10999-128.13208-36.198-12.63989-6.32104-27.58008-13.21606-45.39209-20.68506-133.87695-55.73438-222.36206-59.75659-262.58276-48.26489-39.07153,10.91699-41.36987,45.39197-28.72925,49.41394-13.78979,2.29797-17.2373-24.70703-9.19312-40.2207,6.32031-12.06628,19.53564-31.02747,54.58521-39.64612,72.39697-18.3866,164.90503-25.28149,311.99707-3.44751,62.63,9.19336,117.78906,22.9834,167.203,39.07166-27.005-4.02209-48.83899,14.9386-51.71204,34.47473-2.87305,21.26001,10.91699,35.62402,32.75098,33.8999,18.38696-1.7229,21.26001-24.13196,11.49207-31.60193-6.89502-5.17102-13.79004-1.14905-14.93909,1.15002-2.29895-3.448,12.06604-14.94006,25.28101,0,10.91699,12.63989,6.32104,62.62891-62.62891,62.05396Zm867.04395-89.63403c-13.21997,14.93896-28.15991,2.87305-25.28003,0,.57007,2.2981,7.46997,6.32007,14.93994,1.14905,9.76001-7.46973,6.32007-29.8783-11.5-31.60217-21.82983-2.29834-35.61987,12.06616-32.75,33.90015,2.88013,19.53601,24.71021,39.07202,51.72021,34.47498-49.98999,16.08801-104.58008,29.87805-167.21021,39.07202-144.21997,21.25903-235.57593,14.93909-307.39795-2.29895-6.89502-1.72412-14.36499-4.59607-22.40894-7.46899-21.83398-9.76807-31.60205-23.55811-36.77295-33.32605-8.04407-15.51404-4.02209-42.51892,9.19287-40.2207-12.64087,4.02173-9.76794,38.4967,28.729,49.4137,40.22107,11.49194,128.70605,7.46997,263.15796-48.83911,17.23999-7.4696,32.18018-14.3645,45.39014-20.68481,37.91992-16.08838,91.93994-35.62402,128.12988-36.19873,68.38013,0,72.97998,50.56323,62.06006,62.62964Zm746.95605,89.63403c-36.19904-.57397-89.63501-20.10999-128.13202-36.198-12.64001-6.32104-27.58002-13.21606-45.39203-20.68506-133.87695-55.73438-222.36224-59.75659-262.58295-48.26489-39.07153,10.91699-41.36987,45.39197-28.72913,49.41394-13.78992,2.29797-17.23737-24.70703-9.19324-40.2207,6.32037-12.06628,19.53577-31.02747,54.58514-39.64612,72.39722-18.3866,164.90521-25.28149,311.99719-3.44751,62.63,9.19336,117.789,22.9834,167.203,39.07166-27.005-4.02209-48.83899,14.9386-51.71198,34.47473-2.87305,21.26001,10.91699,35.62402,32.75098,33.8999,18.38696-1.7229,21.26001-24.13196,11.492-31.60193-6.89502-5.17102-13.79004-1.14905-14.93903,1.15002-2.29901-3.448,12.06598-14.94006,25.28101,0,10.91699,12.63989,6.32098,62.62891-62.62897,62.05396Zm867.04401-89.63403c-13.22009,14.93896-28.16003,2.87305-25.28003,0,.56995,2.2981,7.46997,6.32007,14.93994,1.14905,9.76001-7.46973,6.32007-29.8783-11.5-31.60217-21.82996-2.29834-35.62,12.06616-32.75,33.90015,2.88,19.53601,24.71008,39.07202,51.72009,34.47498-49.98999,16.08801-104.58008,29.87805-167.21008,39.07202-144.21997,21.25903-235.57599,14.93909-307.39795-2.29895-6.89502-1.72412-14.36499-4.59607-22.409-7.46899-21.83405-9.76807-31.60199-23.55811-36.77301-33.32605-8.04401-15.51404-4.02203-42.51892,9.19299-40.2207-12.64099,4.02173-9.76801,38.4967,28.729,49.4137,40.22101,11.49194,128.70599,7.46997,263.15796-48.83911,17.23999-7.4696,32.18005-14.3645,45.39001-20.68481,37.92004-16.08838,91.94006-35.62402,128.13-36.19873,68.38,0,72.97998,50.56323,62.06006,62.62964Zm746.95599,89.63403c-36.19897-.57397-89.63501-20.10999-128.13208-36.198-12.63989-6.32104-27.57996-13.21606-45.39197-20.68506-133.87695-55.73438-222.3623-59.75659-262.58301-48.26489-39.07147,10.91699-41.36981,45.39197-28.72906,49.41394-13.78992,2.29797-17.23737-24.70703-9.19324-40.2207,6.32031-12.06628,19.53571-31.02747,54.58514-39.64612,72.39716-18.3866,164.90515-25.28149,311.99719-3.44751,62.63,9.19336,117.78906,22.9834,167.203,39.07166-27.005-4.02209-48.83899,14.9386-51.71204,34.47473-2.87305,21.26001,10.91699,35.62402,32.75098,33.8999,18.38696-1.7229,21.26001-24.13196,11.49207-31.60193-6.89502-5.17102-13.79004-1.14905-14.93909,1.15002-2.29895-3.448,12.06604-14.94006,25.28101,0,10.91699,12.63989,6.32104,62.62891-62.62891,62.05396Zm867.04395-89.63403c-13.21997,14.93896-28.15991,2.87305-25.28003,0,.57007,2.2981,7.46997,6.32007,14.93994,1.14905,9.76001-7.46973,6.32007-29.8783-11.5-31.60217-21.82983-2.29834-35.61987,12.06616-32.75,33.90015,2.88013,19.53601,24.71021,39.07202,51.72021,34.47498-49.98999,16.08801-104.58008,29.87805-167.21021,39.07202-144.21997,21.25903-235.57593,14.93909-307.39795-2.29895-6.89502-1.72412-14.36499-4.59607-22.40894-7.46899-21.83398-9.76807-31.60205-23.55811-36.77295-33.32605-8.04407-15.51404-4.02209-42.51892,9.19287-40.2207-12.64087,4.02173-9.76794,38.4967,28.729,49.4137,40.22107,11.49194,128.70605,7.46997,263.15796-48.83911,17.23999-7.4696,32.18018-14.3645,45.39014-20.68481,37.91992-16.08838,91.93994-35.62402,128.12988-36.19873,68.38013,0,72.97998,50.56323,62.06006,62.62964Zm746.95605,89.63403c-36.19897-.57397-89.63501-20.10999-128.13208-36.198-12.63989-6.32104-27.58008-13.21606-45.39209-20.68506-133.87695-55.73438-222.3623-59.75659-262.58301-48.26489-39.07129,10.91699-41.36963,45.39197-28.729,49.41394-13.78979,2.29797-17.2373-24.70703-9.19312-40.2207,6.32031-12.06628,19.53564-31.02747,54.58521-39.64612,72.39697-18.3866,164.90503-25.28149,311.99707-3.44751,62.62988,9.19336,117.78906,22.9834,167.20312,39.07166-27.00513-4.02209-48.83911,14.9386-51.71216,34.47473-2.87305,21.26001,10.91699,35.62402,32.75098,33.8999,18.38696-1.7229,21.26001-24.13196,11.49194-31.60193-6.89502-5.17102-13.79004-1.14905-14.93896,1.15002-2.29883-3.448,12.06592-14.94006,25.28101,0,10.91699,12.63989,6.32104,62.62891-62.62891,62.05396Zm867.04395-89.63403c-13.21997,14.93896-28.15991,2.87305-25.28003,0,.57007,2.2981,7.46997,6.32007,14.93994,1.14905,9.76001-7.46973,6.32007-29.8783-11.5-31.60217-21.82983-2.29834-35.61987,12.06616-32.75,33.90015,2.88013,19.53601,24.71021,39.07202,51.72021,34.47498-49.98999,16.08801-104.58008,29.87805-167.21021,39.07202-144.21997,21.25903-235.57593,14.93909-307.39795-2.29895-6.89502-1.72412-14.36499-4.59607-22.40894-7.46899-21.83398-9.76807-31.60205-23.55811-36.77295-33.32605-8.04395-15.51404-4.02197-42.51892,9.19287-40.2207-12.64087,4.02173-9.76807,38.4967,28.729,49.4137,40.22119,11.49194,128.70605,7.46997,263.15796-48.83911,17.23999-7.4696,32.18018-14.3645,45.39014-20.68481,37.91992-16.08838,91.93994-35.62402,128.12988-36.19873,68.38013,0,72.97998,50.56323,62.06006,62.62964Zm746.9563,89.63403c-36.19922-.57397-89.63525-20.10999-128.13232-36.198-12.64014-6.32104-27.58008-13.21606-45.39209-20.68506-133.87695-55.73438-222.3623-59.75659-262.58301-48.26489-39.07129,10.91699-41.36963,45.39197-28.729,49.41394-13.78979,2.29797-17.2373-24.70703-9.19312-40.2207,6.32031-12.06628,19.53564-31.02747,54.58521-39.64612,72.39697-18.3866,164.90527-25.28149,311.99707-3.44751,62.62988,9.19336,117.78906,22.9834,167.20312,39.07166-27.00488-4.02209-48.83887,14.9386-51.71191,34.47473-2.87305,21.26001,10.91699,35.62402,32.75098,33.8999,18.38672-1.7229,21.25977-24.13196,11.4917-31.60193-6.89502-5.17102-13.79004-1.14905-14.93896,1.15002-2.29883-3.448,12.06592-14.94006,25.28125,0,10.91699,12.63989,6.3208,62.62891-62.62891,62.05396Zm867.04395-89.63403c-13.22021,14.93896-28.16016,2.87305-25.28027,0,.56982,2.2981,7.47021,6.32007,14.93994,1.14905,9.76025-7.46973,6.32031-29.8783-11.5-31.60217-21.83008-2.29834-35.62012,12.06616-32.75,33.90015,2.87988,19.53601,24.70996,39.07202,51.72021,34.47498-49.99023,16.08801-104.58008,29.87805-167.20996,39.07202-144.22021,21.25903-235.57617,14.93909-307.39795-2.29895-6.89502-1.72412-14.36523-4.59607-22.40918-7.46899-21.83398-9.76807-31.60205-23.55811-36.77295-33.32605-8.04395-15.51404-4.02197-42.51892,9.19287-40.2207-12.64111,4.02173-9.76807,38.4967,28.729,49.4137,40.22119,11.49194,128.70605,7.46997,263.1582-48.83911,17.23975-7.4696,32.17969-14.3645,45.38965-20.68481,37.92041-16.08838,91.94043-35.62402,128.13037-36.19873,68.37988,0,72.97998,50.56323,62.06006,62.62964Zm746.95605,89.63403c-36.19922-.57397-89.63525-20.10999-128.13232-36.198-12.64014-6.32104-27.58008-13.21606-45.39209-20.68506-133.87695-55.73438-222.3623-59.75659-262.58301-48.26489-39.07129,10.91699-41.36963,45.39197-28.729,49.41394-13.79004,2.29797-17.2373-24.70703-9.19336-40.2207,6.32031-12.06628,19.53564-31.02747,54.58545-39.64612,72.39697-18.3866,164.90527-25.28149,311.99707-3.44751,62.62988,9.19336,117.78906,22.9834,167.20312,39.07166-27.00488-4.02209-48.83887,14.9386-51.71191,34.47473-2.87305,21.26001,10.91699,35.62402,32.75098,33.8999,18.38672-1.7229,21.25977-24.13196,11.4917-31.60193-6.89502-5.17102-13.79004-1.14905-14.93896,1.15002-2.29883-3.448,12.06592-14.94006,25.28125,0,10.91699,12.63989,6.3208,62.62891-62.62891,62.05396Zm867.04395-89.63403c-13.22021,14.93896-28.16016,2.87305-25.28027,0,.56982,2.2981,7.47021,6.32007,14.93994,1.14905,9.76025-7.46973,6.32031-29.8783-11.5-31.60217-21.83008-2.29834-35.62012,12.06616-32.75,33.90015,2.87988,19.53601,24.70996,39.07202,51.72021,34.47498-49.99023,16.08801-104.58008,29.87805-167.20996,39.07202-144.22021,21.25903-235.57617,14.93909-307.39795-2.29895-6.89502-1.72412-14.36523-4.59607-22.40918-7.46899-21.83398-9.76807-31.60205-23.55811-36.77295-33.32605-8.04395-15.51404-4.02197-42.51892,9.19287-40.2207-12.64111,4.02173-9.76807,38.4967,28.729,49.4137,40.22119,11.49194,128.70605,7.46997,263.1582-48.83911,17.23975-7.4696,32.17969-14.3645,45.38965-20.68481,37.92041-16.08838,91.94043-35.62402,128.13037-36.19873,68.37988,0,72.97998,50.56323,62.06006,62.62964Z"/>
      <path class="cls-1" d="m9654.12183,1241.33108c-19.53564,6.31995-24.13232,35.04895-10.34277,43.09302-2.87256,13.79004-79.29199,29.87854-252.81494-51.71204-163.75635-87.91101-249.94336-64.35303-280.396-14.93909-24.13232,39.07104-9.19336,78.14307,18.96094,92.50757-138.47412-46.5415-235.00293-108.02148-340.15088-125.8335-75.84521-14.93896-180.41846-13.21497-291.88818,2.87305-149.97021,22.40894-294.18018,86.76196-395.31006,129.85547,8.62012-33.32544-4.6001-68.37158-32.18018-76.99048v-.00305c-8.61865-2.87292-18.38623-2.87292-29.87793,1.14905-19.53564,6.31995-24.13232,35.04895-10.34277,43.09302-2.87256,13.79004-79.29199,29.87854-252.81494-51.71204-163.75635-87.91101-249.94336-64.35303-280.396-14.93909-24.13232,39.07104-9.19336,78.14307,18.96094,92.50757-138.47412-46.5415-235.00293-108.02148-340.15088-125.8335-75.84521-14.93896-180.41846-13.21497-291.88818,2.87305-149.97021,22.40894-294.18018,86.76196-395.31006,129.85547,8.62012-33.32544-4.6001-68.37158-32.17993-76.99048v-.00305c-8.6189-2.87292-18.38672-2.87292-29.87817,1.14905-19.53589,6.31995-24.13257,35.04895-10.34253,43.09302-2.8728,13.79004-79.29224,29.87854-252.81543-51.71204-163.75586-87.91101-249.94287-64.35303-280.396-14.93909-24.13208,39.07104-9.19287,78.14307,18.96118,92.50757-138.47412-46.5415-235.00317-108.02148-340.15112-125.8335-75.84497-14.93896-180.41797-13.21497-291.88794,2.87305-149.96997,22.40894-294.17993,86.76196-395.31006,129.85547,8.62012-33.32544-4.6001-68.37158-32.17993-76.99048v-.00305c-8.6189-2.87292-18.38672-2.87292-29.87817,1.14905-19.53589,6.31995-24.13257,35.04895-10.34253,43.09302-2.8728,13.79004-79.29224,29.87854-252.81543-51.71204-163.75586-87.91101-249.94287-64.35303-280.396-14.93909-24.13196,39.07104-9.19287,78.14307,18.96106,92.50757-138.474-46.5415-235.00305-108.02148-340.151-125.8335-75.84497-14.93896-180.41797-13.21497-291.88794,2.87305-149.96997,22.40894-294.17999,86.76196-395.31,129.85547,8.62-33.32544-4.6001-68.37158-32.18005-76.99048v-.00305c-8.61871-2.87292-18.3866-2.87292-29.87817,1.14905-19.53583,6.31995-24.13245,35.04895-10.34253,43.09302-2.87286,13.79004-79.2923,29.87854-252.81531-51.71204-163.75598-87.91101-249.94299-64.35303-280.396-14.93909-24.13202,39.07104-9.19299,78.14307,18.961,92.50757-138.474-46.5415-235.00299-108.02148-340.151-125.8335-75.84497-14.93896-180.41803-13.21497-291.888,2.87305-149.96997,22.40894-294.17993,86.76196-395.30994,129.85547,8.62-33.32544-4.6001-68.37158-32.18005-76.99048v-.00305c-8.61871-2.87292-18.3866-2.87292-29.87817,1.14905-19.53583,6.31995-24.13239,35.04895-10.34253,43.09302-2.87286,13.79004-79.2923,29.87854-252.81537-51.71204-163.75586-87.91101-249.94287-64.35303-280.396-14.93909-24.13196,39.07104-9.19287,78.14307,18.96106,92.50757-138.474-46.5415-235.00305-108.02148-340.151-125.8335-75.84497-14.93896-180.41797-13.21497-291.88794,2.87305-149.96997,22.40894-294.17993,86.76196-395.31006,129.85547,8.62012-33.32544-4.6001-68.37158-32.17993-76.99048v134.33618c76.41992-27.57983,155.13989-68.83716,255.68994-102.16321-28.1499,14.36499-43.09009,53.43616-18.95996,92.50769,29.87988,48.83936,116.63989,72.39722,279.82007-15.51367,173.52393-81.59009,249.3689-65.50195,252.81592-51.71204-13.79004,8.04407-9.19312,36.77283,10.91699,43.66785,45.96704,14.93921,71.823-31.02734,61.47998-74.6958,100.552,43.09387,243.04797,106.29785,390.71509,128.13184,103.9989,15.51367,201.67792,17.81201,275.79895,5.74585,36.19867-4.02197,70.67358-13.32764,105.72296-25.96851,76.42004-27.57983,155.14001-68.83716,255.68994-102.16321-28.1499,14.36499-43.08997,53.43616-18.95996,92.50769,29.88,48.83936,116.64001,72.39722,279.82007-15.51367,173.52393-81.59009,249.36896-65.50195,252.81598-51.71204-13.79004,8.04407-9.19305,36.77283,10.91699,43.66785,45.96698,14.93921,71.823-31.02734,61.47998-74.6958,100.552,43.09387,243.04797,106.29785,390.71503,128.13184,103.99896,15.51367,201.67798,17.81201,275.79901,5.74585,36.19867-4.02197,70.67358-13.32764,105.72296-25.96851,76.42004-27.57983,155.14001-68.83716,255.69-102.16321-28.1499,14.36499-43.09003,53.43616-18.95996,92.50769,29.87988,48.83936,116.63989,72.39722,279.82007-15.51367,173.52393-81.59009,249.3689-65.50195,252.81592-51.71204-13.79004,8.04407-9.19312,36.77283,10.91699,43.66785,45.96704,14.93921,71.823-31.02734,61.47998-74.6958,100.552,43.09387,243.04797,106.29785,390.71509,128.13184,103.99878,15.51367,201.67798,17.81201,275.79907,5.74585,36.19849-4.02197,70.67334-13.32764,105.7229-25.96851,76.41992-27.57983,155.13989-68.83716,255.68994-102.16321-28.1499,14.36499-43.09009,53.43616-18.95996,92.50769,29.87988,48.83936,116.63989,72.39722,279.82007-15.51367,173.52393-81.59009,249.3689-65.50195,252.81592-51.71204-13.79004,8.04407-9.19312,36.77283,10.91699,43.66785,45.96704,14.93921,71.823-31.02734,61.47998-74.6958,100.552,43.09387,243.04785,106.29785,390.71509,128.13184,103.99878,15.51367,201.67798,17.81201,275.79907,5.74585,36.19849-4.02197,70.67334-13.32764,105.7229-25.96851,76.42017-27.57983,155.13989-68.83716,255.6897-102.16321-28.1499,14.36499-43.08984,53.43616-18.95996,92.50769,29.88037,48.83936,116.64014,72.39722,279.82031-15.51367,173.52393-81.59009,249.36914-65.50195,252.81592-51.71204-13.79004,8.04407-9.19287,36.77283,10.91699,43.66785,45.9668,14.93921,71.82275-31.02734,61.47998-74.6958,100.55176,43.09387,243.04785,106.29785,390.71484,128.13184,103.99902,15.51367,201.67822,17.81201,275.79932,5.74585,36.19873-4.02197,70.67334-13.32764,105.72266-25.96851,76.42041-27.57983,155.14014-68.83716,255.68994-102.16321-28.1499,14.36499-43.08984,53.43616-18.95996,92.50769,29.88037,48.83936,116.64014,72.39722,279.82031-15.51367,173.52393-81.59009,249.36914-65.50195,252.81592-51.71204-13.79004,8.04407-9.19287,36.77283,10.91699,43.66785,45.9668,14.93921,71.82275-31.02734,61.47998-74.6958,100.55176,43.09387,243.04785,106.29785,390.71484,128.13184,103.99902,15.51367,201.67822,17.81201,275.79932,5.74585,36.19873-4.02197,70.67334-13.32764,105.72266-25.96851v-134.33923c-8.61865-2.87292-18.38623-2.87292-29.87793,1.14905Zm-8858.32495,70.09863c12.64111-4.02173,9.76807-38.49658-28.729-49.41357-40.22095-11.49207-128.70593-7.47009-263.15796,48.83899-17.23999,7.4696-32.17993,14.3645-45.38989,20.68494-37.92017,16.08838-91.94019,35.62402-128.13013,36.19861-68.37988,0-72.97998-50.56311-62.06006-62.62964,13.22021-14.93896,28.16016-2.87292,25.28003,0-.56982-2.29797-7.46997-6.31995-14.93994-1.14905-9.76001,7.46973-6.32007,29.87842,11.5,31.60217,21.83008,2.29822,35.62012-12.06628,32.75-33.90002-2.87988-19.53613-24.70996-39.07202-51.71997-34.4751,49.98999-16.08801,104.58008-29.87793,167.20996-39.07202,144.21997-21.25903,235.57605-14.93896,307.39795,2.29907,6.89502,1.72388,14.36499,4.59595,22.40906,7.46899,21.83411,9.76794,31.60193,23.55798,36.77307,33.32593,8.04395,15.51404,4.02197,42.51904-9.19312,40.2207Zm813.60645,0c-6.32037,12.06616-19.53577,31.02747-54.58514,39.64612-72.39722,18.3866-164.90521,25.28162-311.99713,3.44751-62.63013-9.19324-117.78906-22.98328-167.20312-39.07166,27.005,4.02222,48.83911-14.9386,51.71204-34.47461,2.87292-21.26001-10.91699-35.62402-32.7511-33.90002-18.38696,1.72302-21.26001,24.13196-11.49194,31.60193,6.89502,5.17114,13.79004,1.14905,14.93896-1.1499,2.29907,3.448-12.06592,14.93994-25.28101,0-10.91699-12.64001-6.32092-62.62903,62.62915-62.05396,36.19897.57397,89.63501,20.10986,128.13196,36.198,12.64001,6.32092,27.57996,13.21594,45.39197,20.68494,133.87701,55.7345,222.3623,59.75659,262.58301,48.26501,39.07153-10.91711,41.36987-45.39209,28.72913-49.41406,13.78986-2.29797,17.23737,24.70703,9.19324,40.2207Zm800.39362,0c12.64099-4.02173,9.76801-38.49658-28.729-49.41357-40.22101-11.49207-128.70599-7.47009-263.15796,48.83899-17.23999,7.4696-32.18005,14.3645-45.39001,20.68494-37.92004,16.08838-91.94006,35.62402-128.13,36.19861-68.38,0-72.97998-50.56311-62.06006-62.62964,13.22009-14.93896,28.16003-2.87292,25.28003,0-.56995-2.29797-7.46997-6.31995-14.93994-1.14905-9.76001,7.46973-6.32007,29.87842,11.5,31.60217,21.82996,2.29822,35.62-12.06628,32.75-33.90002-2.88-19.53613-24.71008-39.07202-51.72009-34.4751,49.98999-16.08801,104.58008-29.87793,167.21008-39.07202,144.21997-21.25903,235.57599-14.93896,307.39795,2.29907,6.89502,1.72388,14.36499,4.59595,22.409,7.46899,21.83405,9.76794,31.60199,23.55798,36.77301,33.32593,8.04401,15.51404,4.02203,42.51904-9.19299,40.2207Zm813.60638,0c-6.32037,12.06616-19.53577,31.02747-54.58514,39.64612-72.39722,18.3866-164.90521,25.28162-311.99719,3.44751-62.63-9.19324-117.789-22.98328-167.20306-39.07166,27.005,4.02222,48.83905-14.9386,51.71204-34.47461,2.87299-21.26001-10.91699-35.62402-32.75104-33.90002-18.38696,1.72302-21.26001,24.13196-11.492,31.60193,6.89502,5.17114,13.79004,1.14905,14.93903-1.1499,2.29901,3.448-12.06598,14.93994-25.28101,0-10.91699-12.64001-6.32098-62.62903,62.62903-62.05396,36.19897.57397,89.63501,20.10986,128.13202,36.198,12.63995,6.32092,27.57996,13.21594,45.39197,20.68494,133.87701,55.7345,222.3623,59.75659,262.58301,48.26501,39.07147-10.91711,41.36981-45.39209,28.72906-49.41406,13.78992-2.29797,17.23743,24.70703,9.1933,40.2207Zm800.39355,0c12.64111-4.02173,9.76807-38.49658-28.729-49.41357-40.22095-11.49207-128.70593-7.47009-263.15796,48.83899-17.23999,7.4696-32.17993,14.3645-45.38989,20.68494-37.92017,16.08838-91.94019,35.62402-128.13013,36.19861-68.37988,0-72.97998-50.56311-62.06006-62.62964,13.22021-14.93896,28.16016-2.87292,25.28003,0-.56982-2.29797-7.46997-6.31995-14.93994-1.14905-9.76001,7.46973-6.32007,29.87842,11.5,31.60217,21.83008,2.29822,35.62012-12.06628,32.75-33.90002-2.87988-19.53613-24.70996-39.07202-51.71997-34.4751,49.98999-16.08801,104.58008-29.87793,167.20996-39.07202,144.21997-21.25903,235.57605-14.93896,307.39795,2.29907,6.89502,1.72388,14.36499,4.59595,22.40906,7.46899,21.83411,9.76794,31.60193,23.55798,36.77307,33.32593,8.04395,15.51404,4.02197,42.51904-9.19312,40.2207Zm813.60645,0c-6.32031,12.06616-19.53589,31.02747-54.58521,39.64612-72.39722,18.3866-164.90527,25.28162-311.99707,3.44751-62.63013-9.19324-117.78906-22.98328-167.20312-39.07166,27.005,4.02222,48.83911-14.9386,51.71204-34.47461,2.87292-21.26001-10.91699-35.62402-32.7511-33.90002-18.38696,1.72302-21.26001,24.13196-11.49194,31.60193,6.89502,5.17114,13.79004,1.14905,14.93896-1.1499,2.29907,3.448-12.06592,14.93994-25.28101,0-10.91699-12.64001-6.32092-62.62903,62.62915-62.05396,36.19897.57397,89.63501,20.10986,128.13208,36.198,12.63989,6.32092,27.57983,13.21594,45.39185,20.68494,133.87695,55.7345,222.3623,59.75659,262.58301,48.26501,39.07153-10.91711,41.36987-45.39209,28.729-49.41406,13.79004-2.29797,17.23755,24.70703,9.19336,40.2207Zm800.39355,0c12.64111-4.02173,9.76807-38.49658-28.729-49.41357-40.22095-11.49207-128.70581-7.47009-263.15796,48.83899-17.23999,7.4696-32.17993,14.3645-45.38989,20.68494-37.92017,16.08838-91.94019,35.62402-128.13013,36.19861-68.37988,0-72.97998-50.56311-62.06006-62.62964,13.22021-14.93896,28.16016-2.87292,25.28003,0-.56982-2.29797-7.46997-6.31995-14.93994-1.14905-9.76001,7.46973-6.32007,29.87842,11.5,31.60217,21.83008,2.29822,35.62012-12.06628,32.75-33.90002-2.87988-19.53613-24.70996-39.07202-51.71997-34.4751,49.98999-16.08801,104.58008-29.87793,167.20996-39.07202,144.21997-21.25903,235.57617-14.93896,307.39795,2.29907,6.89502,1.72388,14.36499,4.59595,22.40918,7.46899,21.83398,9.76794,31.60181,23.55798,36.77295,33.32593,8.04395,15.51404,4.02197,42.51904-9.19312,40.2207Zm813.60645,0c-6.32031,12.06616-19.53589,31.02747-54.58521,39.64612-72.39722,18.3866-164.90527,25.28162-311.99707,3.44751-62.63013-9.19324-117.78906-22.98328-167.20312-39.07166,27.00488,4.02222,48.83911-14.9386,51.71191-34.47461,2.87305-21.26001-10.91699-35.62402-32.75098-33.90002-18.38696,1.72302-21.26001,24.13196-11.49194,31.60193,6.89502,5.17114,13.79004,1.14905,14.93896-1.1499,2.29907,3.448-12.06592,14.93994-25.28101,0-10.91699-12.64001-6.3208-62.62903,62.62915-62.05396,36.19897.57397,89.63501,20.10986,128.13208,36.198,12.63989,6.32092,27.57983,13.21594,45.39185,20.68494,133.87695,55.7345,222.3623,59.75659,262.58301,48.26501,39.07153-10.91711,41.36987-45.39209,28.729-49.41406,13.79004-2.29797,17.23755,24.70703,9.19336,40.2207Zm800.3938,0c12.64062-4.02173,9.76758-38.49658-28.729-49.41357-40.22119-11.49207-128.70605-7.47009-263.1582,48.83899-17.23975,7.4696-32.18018,14.3645-45.39014,20.68494-37.91992,16.08838-91.93994,35.62402-128.12988,36.19861-68.37988,0-72.97998-50.56311-62.06006-62.62964,13.22021-14.93896,28.16016-2.87292,25.28027,0-.57031-2.29797-7.47021-6.31995-14.93994-1.14905-9.76025,7.46973-6.32031,29.87842,11.5,31.60217,21.82959,2.29822,35.61963-12.06628,32.75-33.90002-2.88037-19.53613-24.71045-39.07202-51.72021-34.4751,49.98975-16.08801,104.58008-29.87793,167.20996-39.07202,144.22021-21.25903,235.57617-14.93896,307.39795,2.29907,6.89502,1.72388,14.36523,4.59595,22.40918,7.46899,21.83398,9.76794,31.60205,23.55798,36.77295,33.32593,8.04395,15.51404,4.02197,42.51904-9.19287,40.2207Zm813.60645,0c-6.3208,12.06616-19.53613,31.02747-54.58545,39.64612-72.39697,18.3866-164.90527,25.28162-311.99707,3.44751-62.62988-9.19324-117.78906-22.98328-167.20312-39.07166,27.00488,4.02222,48.83887-14.9386,51.71191-34.47461,2.87305-21.26001-10.91699-35.62402-32.75098-33.90002-18.38672,1.72302-21.25977,24.13196-11.4917,31.60193,6.89453,5.17114,13.79004,1.14905,14.93896-1.1499,2.29883,3.448-12.06592,14.93994-25.28125,0-10.91699-12.64001-6.3208-62.62903,62.62891-62.05396,36.19922.57397,89.63525,20.10986,128.13232,36.198,12.63965,6.32092,27.58008,13.21594,45.3916,20.68494,133.87744,55.7345,222.3623,59.75659,262.58301,48.26501,39.07178-10.91711,41.37012-45.39209,28.72949-49.41406,13.78955-2.29797,17.2373,24.70703,9.19336,40.2207Zm800.39355,0c12.64062-4.02173,9.76758-38.49658-28.729-49.41357-40.22119-11.49207-128.70605-7.47009-263.1582,48.83899-17.23975,7.4696-32.18018,14.3645-45.39014,20.68494-37.91992,16.08838-91.93994,35.62402-128.12988,36.19861-68.37988,0-72.97998-50.56311-62.06006-62.62964,13.22021-14.93896,28.16016-2.87292,25.28027,0-.57031-2.29797-7.47021-6.31995-14.93994-1.14905-9.76025,7.46973-6.32031,29.87842,11.5,31.60217,21.82959,2.29822,35.61963-12.06628,32.75-33.90002-2.88037-19.53613-24.71045-39.07202-51.72021-34.4751,49.98975-16.08801,104.58008-29.87793,167.20996-39.07202,144.22021-21.25903,235.57617-14.93896,307.39795,2.29907,6.89502,1.72388,14.36523,4.59595,22.40918,7.46899,21.83398,9.76794,31.60205,23.55798,36.77295,33.32593,8.04395,15.51404,4.02197,42.51904-9.19287,40.2207Zm813.60645,0c-6.3208,12.06616-19.53613,31.02747-54.58545,39.64612-72.39697,18.3866-164.90527,25.28162-311.99707,3.44751-62.62988-9.19324-117.78906-22.98328-167.20312-39.07166,27.00488,4.02222,48.83887-14.9386,51.71191-34.47461,2.87305-21.26001-10.91699-35.62402-32.75098-33.90002-18.38672,1.72302-21.25977,24.13196-11.4917,31.60193,6.89453,5.17114,13.79004,1.14905,14.93896-1.1499,2.29883,3.448-12.06592,14.93994-25.28125,0-10.91699-12.64001-6.3208-62.62903,62.62891-62.05396,36.19922.57397,89.63525,20.10986,128.13232,36.198,12.63965,6.32092,27.58008,13.21594,45.3916,20.68494,133.87744,55.7345,222.3623,59.75659,262.58301,48.26501,39.07178-10.91711,41.37012-45.39209,28.72949-49.41406,13.78955-2.29797,17.2373,24.70703,9.19336,40.2207Z"/>
    </g>
  </g>
</svg>