<?xml version="1.0" encoding="UTF-8"?> <svg xmlns="http://www.w3.org/2000/svg" id="Layer_1" data-name="Layer 1" viewBox="0 0 505 505"><title>iod_seal_tp_black_c</title><path d="M252.34,502.13A250,250,0,0,1,75.56,75.35,250,250,0,0,1,429.12,428.9,248.37,248.37,0,0,1,252.34,502.13Zm0-490A240,240,0,0,0,82.63,421.83,240,240,0,0,0,422.05,82.42,238.43,238.43,0,0,0,252.34,12.13Z"></path><path d="M252.34,82.13c-93.74,0-170,76.26-170,170s76.26,170,170,170,170-76.27,170-170S346.08,82.13,252.34,82.13ZM195.6,378.52a148.63,148.63,0,0,1-39.88-54C145.78,301.36,145,278.47,145,253.09V136.81H359.71V253.09c0,25.38-.81,48.27-10.76,71.44a148.49,148.49,0,0,1-39.87,54c-15.74,13.45-34.83,24.21-56.74,32C230.43,402.73,211.34,392,195.6,378.52ZM351.71,126.81H153a159.7,159.7,0,0,1,198.74,0ZM92.34,252.13A159.41,159.41,0,0,1,135,143.51V253.09c0,26.5.87,50.47,11.57,75.38a158.59,158.59,0,0,0,42.57,57.66,177.82,177.82,0,0,0,36,23.67C149.81,396.83,92.34,331.07,92.34,252.13ZM279.57,409.8a177.82,177.82,0,0,0,36-23.67,158.59,158.59,0,0,0,42.57-57.66c10.7-24.91,11.57-48.88,11.57-75.38V143.51a159.41,159.41,0,0,1,42.63,108.62C412.34,331.07,354.87,396.83,279.57,409.8Z"></path><circle cx="215.49" cy="169.76" r="14.79"></circle><circle cx="215.49" cy="273.3" r="14.79"></circle><circle cx="289.45" cy="273.3" r="14.79"></circle><circle cx="252.47" cy="236.32" r="14.79"></circle><circle cx="252.47" cy="339.86" r="14.79"></circle><circle cx="252.47" cy="376.84" r="14.79"></circle><circle cx="178.52" cy="236.32" r="14.79"></circle><circle cx="289.45" cy="169.76" r="14.79"></circle><circle cx="326.43" cy="236.32" r="14.79"></circle><rect x="163.72" y="154.97" width="29.58" height="59.17" rx="14.79"></rect><rect x="237.68" y="154.97" width="29.58" height="59.17" rx="14.79"></rect><rect x="237.68" y="258.51" width="29.58" height="59.17" rx="14.79"></rect><rect x="163.72" y="258.51" width="29.58" height="59.17" rx="14.79"></rect><rect x="311.64" y="258.51" width="29.58" height="59.17" rx="14.79"></rect><rect x="274.66" y="191.95" width="29.58" height="59.17" rx="14.79"></rect><rect x="200.7" y="191.95" width="29.58" height="59.17" rx="14.79"></rect><rect x="200.7" y="295.49" width="29.58" height="59.17" rx="14.79"></rect><rect x="274.66" y="295.49" width="29.58" height="59.17" rx="14.79"></rect><rect x="311.64" y="154.97" width="29.58" height="59.17" rx="14.79"></rect><polygon points="352.92 434.81 345.67 428.41 346.84 438.03 352.92 434.81"></polygon><path d="M247,447.39l-2.25,0-.3,18.4,1.62,0c6.39.1,10.2-1.5,10.32-9.06C256.46,449.43,252.85,447.48,247,447.39Z"></path><polygon points="283.6 458.25 290.4 457.11 285.53 448.75 283.6 458.25"></polygon><path d="M162.32,425c-4.48-2.33-9-.59-11.86,4.84s-1.61,10.11,2.86,12.44,9.07.51,11.83-4.8S166.83,427.31,162.32,425Z"></path><path d="M252.34,19.63c-128.41,0-232.5,104.09-232.5,232.5s104.09,232.5,232.5,232.5,232.5-104.1,232.5-232.5S380.75,19.63,252.34,19.63Zm145.38,87.71a2.5,2.5,0,0,1,3.53,0,205.84,205.84,0,0,1,56.5,113.68,2.48,2.48,0,0,1-2.1,2.84,2.31,2.31,0,0,1-.37,0,2.5,2.5,0,0,1-2.47-2.13,200.91,200.91,0,0,0-55.14-110.93A2.5,2.5,0,0,1,397.72,107.34ZM391.78,80,388,85.24,376.66,77l-3.19,4.35,10.74,7.88-3.86,5.26-10.74-7.88-3.83,5.23,11.28,8.27-3.83,5.23-17-12.46L374.8,67.56ZM337.64,54.57l2.92-5.79L363.3,60.25,360.38,66l-8.16-4.11L341,84.14l-6.39-3.22L345.84,58.7ZM298.4,55.83l5.75-19.17,6.76,2-5.52,18.4c-1.25,4.18-1.08,6.44,3.27,7.74s5.75-.53,7-4.58l5.54-18.49,6.77,2-5.69,19c-2.39,8-7.61,10.64-15.45,8.29S296,63.68,298.4,55.83ZM265.67,30.92l25.29,3-.75,6.43-9.08-1.06L278.22,64l-7.1-.84L274,38.43l-9.12-1.08Zm-13.11-.06L253,62.22l-7.07.1L245.5,31Zm-20.18.56,1,6.41-9,1.34,3.65,24.61-7.08,1-3.64-24.61-9.08,1.34-.95-6.41Zm-47.56,9.13a10.5,10.5,0,0,1,11.28,2.77l-4.46,5.25c-1.6-1.9-3.42-2.54-5.13-2a2.74,2.74,0,0,0-2.06,3.31c.47,1.46,2,2.12,6.77,2.41,7.23.43,10,1.92,11.33,6.16,1.89,5.91-1.54,11.41-7.63,13.36s-12.29-.18-15-5.59l6.15-3.81c1.43,3.42,4.09,4.36,7.09,3.4,2.19-.7,3.64-2.35,2.92-4.62-.44-1.37-2.14-2-6.55-2.3-7.21-.52-10.28-2.14-11.75-6.73C176.17,47.19,178.94,42.43,184.82,40.55Zm-41.57,19,19.44,11.31L153.7,54l6.23-3.32,14.75,27.68-6.4,3.41L148.84,70.3l9,17-6.24,3.32L136.89,62.9Zm-20,12.85L142,97.53l-5.67,4.22L117.63,76.59ZM47.15,221.07a205.91,205.91,0,0,1,56.5-113.68,2.5,2.5,0,1,1,3.58,3.49A201,201,0,0,0,52.09,221.81a2.49,2.49,0,0,1-2.47,2.13l-.37,0A2.48,2.48,0,0,1,47.15,221.07Zm-9.7,29.81a10,10,0,1,1,10,10A10,10,0,0,1,37.45,250.88Zm86.42,161a2.5,2.5,0,0,1-3.52.34A206.74,206.74,0,0,1,46.77,280.51a2.5,2.5,0,1,1,4.95-.67,201.81,201.81,0,0,0,71.81,128.54A2.5,2.5,0,0,1,123.87,411.9Zm47.59,28.83c-4.57,8.78-13.19,11.7-21.25,7.51s-10.56-12.95-6-21.69,13.17-11.77,21.23-7.57S176.05,431.91,171.46,440.73Zm36.26,2-15.08-4.56-1.56,5.17,13.31,4-1.89,6.25-13.31-4L185.44,462l-6.76-2,9.08-30,21.84,6.61Zm38.92,29.5-9.41-.15.51-31.36,9.45.15c10.49.17,16.42,6,16.26,16.2C263.28,467.1,257.34,472.45,246.64,472.27ZM296.73,468l-2.87-4.91-11.63,1.95-1.12,5.57-7.59,1.26,7.7-33.08,5.11-.86,18,28.8Zm29.72-8.4-6.78,2.29-8-23.57L303,441.26l-2.08-6.13L325.06,427l2.08,6.14L318.48,436Zm35.92-16.46-4.27-3.75-10.42,5.51.69,5.64-6.8,3.6-3.13-33.83L343,417.9l26.17,21.65Zm-110-13.52a177.5,177.5,0,1,1,177.5-177.5A177.5,177.5,0,0,1,252.34,429.63Zm205.8-149.12a206.8,206.8,0,0,1-73.59,131.73,2.45,2.45,0,0,1-1.59.57,2.5,2.5,0,0,1-1.59-4.43,201.76,201.76,0,0,0,71.81-128.54,2.5,2.5,0,0,1,5,.67Zm-.69-19.63a10,10,0,1,1,10-10A10,10,0,0,1,457.45,260.88Z"></path></svg> 