<?xml version="1.0" encoding="UTF-8"?>
<svg id="Layer_1" data-name="Layer 1" xmlns="http://www.w3.org/2000/svg" xmlns:xlink="http://www.w3.org/1999/xlink" viewBox="0 0 461.4 54.77">
  <defs>
    <style>
      .cls-1 {
        clip-path: url(#clippath);
      }

      .cls-2, .cls-3 {
        fill: none;
      }

      .cls-2, .cls-4, .cls-5 {
        stroke-width: 0px;
      }

      .cls-3 {
        stroke: #fff;
        stroke-width: .06px;
      }

      .cls-6 {
        clip-path: url(#clippath-1);
      }

      .cls-7 {
        clip-path: url(#clippath-4);
      }

      .cls-8 {
        clip-path: url(#clippath-3);
      }

      .cls-9 {
        clip-path: url(#clippath-2);
      }

      .cls-10 {
        clip-path: url(#clippath-5);
      }

      .cls-4 {
        fill: #ce3e2e;
      }

      .cls-5 {
        fill: #fff;
      }
    </style>
    <clipPath id="clippath">
      <rect class="cls-2" x="0" width="461.39" height="54.77"/>
    </clipPath>
    <clipPath id="clippath-1">
      <rect class="cls-2" x="0" width="461.39" height="54.77"/>
    </clipPath>
    <clipPath id="clippath-2">
      <rect class="cls-2" x="0" width="461.39" height="54.77"/>
    </clipPath>
    <clipPath id="clippath-3">
      <rect class="cls-2" x="0" width="461.39" height="54.77"/>
    </clipPath>
    <clipPath id="clippath-4">
      <rect class="cls-2" x="0" width="461.39" height="54.77"/>
    </clipPath>
    <clipPath id="clippath-5">
      <rect class="cls-2" x="0" width="461.39" height="54.77"/>
    </clipPath>
  </defs>
  <polygon class="cls-4" points="434.55 .16 434.55 13.59 447.96 13.59 447.96 13.57 447.98 13.57 447.98 13.59 447.96 13.59 447.96 27.55 461.4 27.55 461.4 .16 434.55 .16"/>
  <g class="cls-1">
    <path class="cls-5" d="M419.42,28.26c.2-1.3.71-2.3,1.54-3,.83-.7,1.86-1.06,3.07-1.06s2.33.37,3.17,1.1c.85.73,1.27,1.72,1.27,2.96h-9.06ZM435.88,30.16c0-2.37-.5-4.44-1.5-6.22-1-1.78-2.39-3.15-4.17-4.1-1.78-.96-3.81-1.44-6.09-1.44s-4.42.49-6.22,1.48c-1.81.99-3.21,2.4-4.21,4.23-1,1.83-1.5,3.98-1.5,6.43s.51,4.6,1.52,6.43c1.02,1.83,2.43,3.24,4.23,4.23,1.81.99,3.87,1.48,6.18,1.48,1.92,0,3.65-.35,5.2-1.06,1.55-.7,2.84-1.68,3.87-2.92,1.03-1.24,1.74-2.64,2.14-4.19h-7.7c-.71,1.52-1.96,2.28-3.77,2.28-1.21,0-2.24-.39-3.07-1.16-.83-.78-1.31-1.9-1.42-3.36h16.38c.08-.73.13-1.44.13-2.12M401.25,18.48c-1.55,0-2.95.3-4.19.91-1.24.61-2.23,1.43-2.96,2.48v-3.13h-7.24v23.61h7.24v-12.82c0-1.58.41-2.81,1.23-3.68.82-.87,1.92-1.31,3.3-1.31s2.48.44,3.3,1.31c.82.87,1.23,2.1,1.23,3.68v12.82h7.19v-13.79c0-3.13-.82-5.59-2.48-7.38-1.65-1.79-3.86-2.69-6.62-2.69M376.16,42.35h7.24v-23.61h-7.24v23.61ZM379.8,16.28c1.24,0,2.26-.37,3.07-1.12.8-.75,1.21-1.67,1.21-2.77s-.4-2.07-1.21-2.81c-.8-.75-1.83-1.12-3.07-1.12s-2.31.37-3.11,1.12c-.8.75-1.21,1.69-1.21,2.81s.4,2.03,1.21,2.77c.8.75,1.84,1.12,3.11,1.12M365.48,42.35h7.24V11.04h-7.24v31.31ZM353.11,18.48c-1.55,0-2.95.3-4.19.91-1.24.61-2.23,1.43-2.96,2.48v-3.13h-7.24v23.61h7.24v-12.82c0-1.58.41-2.81,1.23-3.68.82-.87,1.92-1.31,3.3-1.31s2.48.44,3.3,1.31c.82.87,1.23,2.1,1.23,3.68v12.82h7.19v-13.79c0-3.13-.83-5.59-2.48-7.38-1.65-1.79-3.86-2.69-6.62-2.69M321.01,36.04c-2.4,0-4.31-.78-5.73-2.35-1.43-1.57-2.14-3.66-2.14-6.28s.71-4.75,2.14-6.3c1.42-1.55,3.33-2.33,5.73-2.33s4.27.78,5.69,2.35c1.42,1.57,2.14,3.66,2.14,6.28s-.71,4.68-2.14,6.26c-1.42,1.58-3.32,2.37-5.69,2.37M321.01,42.65c2.79,0,5.35-.65,7.66-1.95,2.31-1.3,4.15-3.11,5.5-5.44s2.03-4.94,2.03-7.85-.67-5.51-2.01-7.83c-1.34-2.31-3.17-4.12-5.5-5.42-2.33-1.3-4.89-1.95-7.68-1.95s-5.35.65-7.68,1.95c-2.33,1.3-4.17,3.1-5.54,5.42-1.37,2.31-2.05,4.92-2.05,7.83s.68,5.52,2.05,7.85c1.37,2.33,3.22,4.14,5.54,5.44,2.33,1.3,4.89,1.95,7.68,1.95M293.04,8.45h-4.82v38.68h4.82V8.45ZM263.33,36.43c-1.38,0-2.53-.51-3.45-1.52-.92-1.01-1.38-2.47-1.38-4.36s.47-3.38,1.4-4.38c.93-1,2.1-1.5,3.51-1.5s2.54.51,3.49,1.52c.94,1.02,1.42,2.47,1.42,4.36s-.49,3.34-1.46,4.36c-.97,1.02-2.15,1.52-3.53,1.52M263.33,42.69c2.31,0,4.41-.49,6.28-1.48,1.88-.99,3.36-2.4,4.44-4.25,1.09-1.85,1.63-3.99,1.63-6.41s-.54-4.56-1.61-6.41c-1.07-1.85-2.54-3.26-4.4-4.25-1.86-.99-3.95-1.48-6.26-1.48s-4.4.49-6.26,1.48c-1.86.99-3.33,2.41-4.4,4.25-1.07,1.85-1.61,3.99-1.61,6.41s.53,4.6,1.59,6.43c1.06,1.83,2.51,3.24,4.36,4.23,1.85.99,3.93,1.48,6.24,1.48M240.21,18.48c-1.55,0-2.95.3-4.19.91-1.24.61-2.23,1.43-2.96,2.48v-3.13h-7.24v23.61h7.24v-12.82c0-1.58.41-2.81,1.23-3.68.82-.87,1.92-1.31,3.3-1.31s2.48.44,3.3,1.31c.82.87,1.23,2.1,1.23,3.68v12.82h7.19v-13.79c0-3.13-.82-5.59-2.47-7.38-1.65-1.79-3.86-2.69-6.62-2.69M211.42,36.43c-1.38,0-2.53-.51-3.45-1.52-.92-1.01-1.38-2.47-1.38-4.36s.47-3.38,1.4-4.38c.93-1,2.1-1.5,3.51-1.5s2.55.51,3.49,1.52c.95,1.02,1.42,2.47,1.42,4.36s-.49,3.34-1.46,4.36c-.97,1.02-2.15,1.52-3.53,1.52M211.42,42.69c2.31,0,4.41-.49,6.28-1.48,1.88-.99,3.36-2.4,4.44-4.25,1.09-1.85,1.63-3.99,1.63-6.41s-.54-4.56-1.61-6.41c-1.07-1.85-2.54-3.26-4.4-4.25-1.86-.99-3.95-1.48-6.26-1.48s-4.4.49-6.26,1.48c-1.86.99-3.33,2.41-4.4,4.25-1.07,1.85-1.61,3.99-1.61,6.41s.53,4.6,1.59,6.43c1.06,1.83,2.51,3.24,4.36,4.23,1.85.99,3.93,1.48,6.24,1.48M188.42,18.48c-1.58,0-3,.31-4.27.93-1.27.62-2.27,1.45-3,2.5v-10.88h-7.24v31.31h7.24v-12.82c0-1.58.41-2.81,1.23-3.68.82-.87,1.92-1.31,3.3-1.31s2.48.44,3.3,1.31c.82.87,1.23,2.1,1.23,3.68v12.82h7.19v-13.79c0-3.13-.82-5.59-2.45-7.38-1.64-1.79-3.81-2.69-6.52-2.69M163.21,42.35h7.24v-23.61h-7.24v23.61ZM166.85,16.28c1.24,0,2.26-.37,3.07-1.12.8-.75,1.21-1.67,1.21-2.77s-.4-2.07-1.21-2.81c-.8-.75-1.83-1.12-3.07-1.12s-2.31.37-3.11,1.12c-.8.75-1.21,1.69-1.21,2.81s.4,2.03,1.21,2.77c.8.75,1.84,1.12,3.11,1.12M152.53,18.74v12.82c0,1.58-.41,2.81-1.23,3.68-.82.88-1.93,1.31-3.34,1.31s-2.48-.44-3.3-1.31c-.82-.87-1.23-2.1-1.23-3.68v-12.82h-7.19v13.79c0,2.06.38,3.85,1.14,5.37.76,1.52,1.83,2.69,3.22,3.49,1.38.8,2.98,1.21,4.78,1.21,1.52,0,2.91-.32,4.17-.95,1.25-.64,2.25-1.47,2.98-2.52v3.22h7.24v-23.61h-7.24ZM111.73,12.64v5.8h7.87v23.91h7.24v-23.91h7.87v-5.8h-22.98Z"/>
    <path class="cls-5" d="M32.62,1.8c-2.72.04-3.43,1.05-3.48,3.39l-.17,13.44c-.08,6.12-2.64,12.27-11.85,12.27-7.75,0-13.65-3.35-13.65-12.31V5.19c0-2.35-.76-3.35-3.48-3.39V.54c3.35.13,4.77.13,6.11.13s2.76,0,6.11-.13v1.26c-2.72.04-3.48,1.05-3.48,3.39v14.45c0,6.28,3.98,9.67,8.67,9.67,7.29,0,9.88-4.69,9.88-11.98,0-2.35-.04-4.02-.08-5.86l-.13-6.07c-.04-2.51-.59-3.6-3.64-3.6V.54c1.55.04,3.22.13,4.52.13s3.02-.08,4.65-.13v1.26Z"/>
    <path class="cls-5" d="M61.6,9.84h-1.09c-.92-6.03-6.03-8.25-11.06-8.25-5.57,0-10.97,4.4-10.97,12.52s4.52,15.03,11.77,15.03c3.14,0,8.04-1.84,11.64-7.54l.02,4.94c-3.49,2.94-8.52,4.35-13,4.35-14.49,0-16.63-11.22-16.63-15.79C32.29,8.33,37.1,0,50.13,0,52.77,0,57.63.75,61.6,2.35v7.49Z"/>
    <path class="cls-5" d="M89.96,11.2V.9h-25.39v10.3c0,17.78,12.69,20.48,12.69,20.48,0,0,12.76-2.57,12.69-20.48M90.45.42v11.71c-.36,17.32-13.23,20.04-13.23,20.04-13.68-4.39-13.14-20.13-13.14-20.13V.42h26.37Z"/>
    <path class="cls-5" d="M67.62,6.01v3.4h1.97v-3.4l2.59-2.47-1.45-1.46-2.1,2.09-2.09-2.09-1.39,1.39,2.47,2.53ZM84.92,3.59v1.32h-1.33c-.39-.12-.11-.65-.11-.65-.77-.01-.89.86-.89.86-.44.16-.77.51-.77.51.24.3.72.51.72.51.08,1.1.93.82.93.82-.25-.41.13-.62.13-.62h1.26l.06,1.31c-.2.32-.64.15-.64.15.01.77.84.83.84.83.18.51.52.8.52.8.36-.37.51-.76.51-.76,1.14,0,.74-.86.74-.86-.39.15-.54-.17-.54-.17v-1.31h1.33c.38.15.11.64.11.64.77.05.87-.84.87-.84.51-.15.77-.54.77-.54-.16-.19-.72-.42-.72-.42-.05-1.23-.87-.85-.87-.85.13.34-.17.58-.17.58h-1.25l-.06-1.32c.12-.39.65-.08.65-.08-.04-.8-.86-.95-.86-.95-.2-.41-.49-.72-.49-.72-.26.18-.52.67-.52.67-1.04.14-.87.82-.83.94v.02c.41-.25.62.12.62.12M74.23,3.32l-.75.04v.69l-.44.03.24-.14-.32-.3-.58.51-.15.02c-.32.2,0,.3,0,.3h.26s.45.45.45.45l.35-.35-.19-.08.39.03v.85s-.43.04-.43.04l.24-.12-.34-.31-.52.49h-.24c-.24.18,0,.31,0,.31l.25.02.51.45.32-.31-.2-.12.42.06v.88l-.38.02.18-.1-.35-.31-.51.47-.24.02c-.27.15-.01.3-.01.3h.23s.53.51.53.51l.32-.33-.16-.12.39.04v.86l-.36.05v-.11s.17-.02.17-.02l-.36-.3-.52.46-.25.03c-.22.16,0,.29,0,.29l.26.02.51.46.32-.3-.15-.1.37.03v.4h3.24c.63.24,1.01,0,1.01,0h3.42v-.3h.37v-.95h-.37v-.39h.37v-.93h-.37v-.42h.37v-.96h-.37v-.23h.37v-.96h-.36v-.52l-.64-.06v-.08c-.57.12-1.4-.31-1.4-.31-1.06-.53-1.93.02-1.93.02-.8-.58-1.75,0-1.75,0-.6.34-1.2.26-1.2.26v.12ZM89.39,1.44v9.34c-.43.67-1.33.66-1.33.66-.76.09-1.76-.97-1.76-.97-.77-.83-1.73-.83-1.73-.83-.9-.02-1.76.83-1.76.83-.85,1.01-1.84,1-1.84,1-1.05,0-1.92-.86-1.92-.86-1.17-.97-1.91-.83-1.91-.83-.99.02-1.85.81-1.85.81-1.01.95-1.92.89-1.92.89-1.05-.02-1.9-.93-1.9-.93-1.24-.9-1.75-.75-1.75-.75-.87,0-1.65.9-1.65.9-.88.92-1.42.74-1.42.74-.7.02-1.54-.66-1.54-.66V1.41l24.28.03Z"/>
  </g>
  <polygon class="cls-5" points="73.83 3.71 73.84 8.47 74.22 8.08 74.22 3.68 73.83 3.71"/>
  <g class="cls-6">
    <path class="cls-5" d="M74.06,8.69l.38-.4s.41.15,2.54-.33l-.35.71h-2.57Z"/>
    <path class="cls-5" d="M77.21,8.23l-.29.58s.33.12.61-.01l-.32-.57Z"/>
    <path class="cls-5" d="M77.39,7.95l.41.74h2.8l-.42-.37s-.79.06-2.29-.31c0,0-.36-.07-.5-.07"/>
  </g>
  <polygon class="cls-5" points="80.52 8.21 80.79 8.45 80.79 3.71 80.52 3.68 80.52 8.21"/>
  <g class="cls-9">
    <path class="cls-5" d="M84.61,3.07s.17-.35.76-.22c0,0,.05-.4.27-.59,0,0,.21.21.22.58,0,0,.39-.01.73.25,0,0-.4.04-.56.3v1.82s1.84,0,1.84,0c0,0,.31-.26.31-.66,0,0,.32.16.25.81,0,0,.42.01.57.27,0,0-.25.24-.57.21,0,0-.01.49-.27.75,0,0-.08-.46-.36-.54h-1.77v1.74s.21.38.63.36c0,0-.14.41-.77.27,0,0-.06.53-.22.64,0,0-.3-.18-.3-.62,0,0-.58-.08-.66-.3,0,0,.35-.05.52-.34v-1.77h-1.8s-.41.27-.32.63c0,0-.29.03-.31-.78,0,0-.37,0-.58-.24,0,0,.21-.23.61-.23,0,0-.02-.47.26-.67,0,0,0,.37.33.49h1.8v-1.8s-.15-.32-.62-.34"/>
  </g>
  <rect class="cls-5" x="76.83" y="11.51" width=".26" height="2.63"/>
  <rect class="cls-5" x="77.4" y="11.51" width=".26" height="2.63"/>
  <g class="cls-8">
    <path class="cls-5" d="M77.93,11.27c.05-.1.08-.22.08-.34,0-.41-.34-.75-.75-.75s-.75.34-.75.75c0,.12.03.23.08.33h.51c-.12-.06-.21-.19-.21-.33,0-.21.17-.37.37-.37s.37.16.37.37c0,.15-.08.27-.21.33h.51Z"/>
    <path class="cls-5" d="M70.67,3.06l-.18.42-.18-.36-.36.42.3.18-.72.72c-.06.18-.06.3-.06.3.06,0,.12,0,.36-.06l.66-.72.18.3.42-.42-.36-.12.36-.24-.42-.42ZM66.12,3.54l.42.18-.36.12.42.42.12-.3.72.66c.18.12.3.12.36.12,0-.06,0-.18-.12-.36l-.72-.72.36-.12-.42-.42-.12.36-.24-.36-.42.42ZM68.28,7.01l.18.42-.36-.12v.54l.3-.12v.96c.06.18.18.24.18.24.06,0,.12-.06.18-.24v-.96l.36.12v-.54l-.36.12.12-.42h-.6ZM68.34,4.79l.12.48-.36-.18v.6l.36-.12v.9c.06.18.12.3.18.3,0,0,.12-.12.18-.3v-.9l.3.12v-.6l-.36.18.12-.48h-.54ZM65.57,3.46l.95-.98,2.12,2.12,2.08-2.08.96,1.01-2.35,2.32v3.22h-1.44v-3.19s-2.32-2.41-2.32-2.41Z"/>
    <path class="cls-5" d="M74.48,23.45v1.02h6.05s.51,2.23,1.85,2.4v-.97s-.38.09-.65-.6l-.36-1.03s1.51-.52,2.28-1.34l-.89-.51s-.75.58-1.66.89l-.35-1.13-.89.19.34,1.07h-5.72Z"/>
  </g>
  <rect class="cls-5" x="75.49" y="24.71" width="2.03" height=".35"/>
  <g class="cls-7">
    <path class="cls-5" d="M74.53,24.68v2.06h4.63s.25-.02.24-.23c0,0,.04-.17-.19-.4l-1.36-1.44v.69h-2.66v-.68h-.66Z"/>
    <path class="cls-5" d="M73.81,27.05v.34h7.14l-2.48-2.71h-.19l1.23,1.33s.3.36.13.71c0,0-.1.29-.56.32h-5.28Z"/>
    <path class="cls-5" d="M70.14,21.9c.18.03.84.23.84.23.05-.08.53-.56.53-.56-.11-.06-.75-.28-.75-.28-.07.06-.61.62-.61.62M67.74,22.25c-.24-.08-.2-.38-.2-.38.05-.36.36-.34.36-.34.52.06,1.5.24,1.5.24l.67-.68c-.47-.19-1.55-.35-1.55-.35-.29-.08-.24-.38-.24-.38.09-.34.36-.27.36-.27,4.41.78,7.06,3.12,7.06,3.12h-1c-1.43-.98-2.57-1.44-2.57-1.44-.12.12-.47.55-.47.55.89.27,2.58,1.08,2.58,1.08v.79c-3.01-1.79-6.49-1.95-6.49-1.95"/>
    <path class="cls-5" d="M83.61,21.47l-.51.51.5.5.51-.5-.5-.52ZM82.65,21.13l-.25.25.25.25.25-.25-.25-.25ZM84.57,22.33l-.25.25.25.25.25-.25-.25-.25ZM82.11,21.83s-.49-.32-.25-.81c0,0,.17-.41.84-.22l2.39,1.37s.62.38.34.9c0,0-.21.39-.94.07l-2.38-1.31Z"/>
  </g>
  <polygon class="cls-5" points="83.51 21.97 83.6 22.06 83.7 21.98 83.6 21.89 83.51 21.97"/>
  <g class="cls-10">
    <path class="cls-5" d="M73,16.05s.01-.38.25-.53c0,0-.1-.4.16-.51,0,0-.12-.39.23-.49,0,0,0-.4.29-.53,0,0,.01-.31.29-.46,0,0-.08-.33.3-.45,0,0,0-.55.44-.54,0,0,.08-.45.56-.48,0,0,.07-.31.54-.36,0,0,.19-.31.52-.32v2.93s-.09.38-.32.3c0,0,.24.44-.01.6,0,0,.23.39-.09.52,0,0,.16.45-.11.64,0,0,.2.39-.08.54,0,0,.25.36-.07.54,0,0,.24.53-.22.59,0,0-.31,1.47-.09,2.16,0,0-.29.16-.12.66,0,0,.01.25-.3.42l-.3.06.18-.36-.06-.06-.24.3-.11-.14s.15-.19.23-.4c0,0,.28,0,.19-.26,0,0,.07-.16,0-.28,0,0,.2-1.04.01-1.98,0,0,.06.03.15,0,0,0-.42-.16-.31-.78,0,0-.37-.04-.07-.31,0,0-.4-.2.03-.46,0,0-.39-.2,0-.46,0,0-.38-.08-.28-.47,0,0-.25.25-.16.62,0,0-.14-.14-.36-.09,0,0-.3-.2-.76.09,0,0-.15-.12-.31-.23"/>
    <path class="cls-5" d="M72.47,16.2s.48-.05.74.45c0,0,.2.48.48.36,0,0,.2.03.36-.46,0,0,.13-.23.23-.04,0,0,.19.34-.05.6,0,0-.24.34-.68.26,0,0-.34.02-.61-.5,0,0-.16-.43-.46-.68"/>
    <path class="cls-5" d="M73.41,16.5l.12.22s.07.14.19-.01c0,0,.12-.15.18-.35,0,0-.16-.09-.49.14"/>
    <path class="cls-5" d="M72.41,16.6s-.21-.21-.56-.2c0,0,.28.31.4.53,0,0,.09-.28.16-.33"/>
    <path class="cls-5" d="M74.4,18.13s-.09.08-.12.09c0,0-.13.12,0,.27,0,0,.26.43.04.63,0,0,.19.78,0,1.34,0,0-.17.42-.15.56l.14-.25h.09s-.06.31-.06.31l.19-.05s.14-.24.16-.46c0,0-.04-.26.13-.3,0,0-.09-.11,0-.31,0,0,.24-.56-.02-1.84,0,0-.21.14-.38.01"/>
    <path class="cls-5" d="M74.41,17.48s.05.26.05.34l.06.08h.1s-.01-.27-.01-.27l-.2-.14Z"/>
    <path class="cls-5" d="M74.53,3.51s.56,0,1.07-.3c0,0,.71-.5,1.6.08,0,0,.77-.54,1.77-.1,0,0,.59.33,1.24.38v4.45s-.7.04-1.43-.13c0,0-1.01-.24-1.43-.26V3.51l-.15-.18-.15.18v4.14s-.56.1-1.22.22c0,0-.87.17-1.29.13V3.51Z"/>
    <path class="cls-5" d="M73.3,17.98s-.04-.05-.04-.08c0,0,0,.02,0,.03-.02.06-.06.2.07.32l.1-.11.11-.11s0,0,0,0c0,0,0,0,0,.01,0,0,0-.03,0-.04.04-.14,0-.24-.11-.3l-.07.13-.07.13ZM73.33,17.55s.49.15.83-.1c0,0,.16.32.1.54,0,0-.43.12-.18.69,0,0-.12-.12-.24-.04,0,0-.11.1,0,.24l.12.19s-.26.19-.55-.41c0,0-.17-.48-.53-.59,0,0,.09-.15.09-.25,0,0,.27-.11.36-.26"/>
    <path class="cls-5" d="M79.55,20.7c-.05-.1-.09-.28.09-.44,0,0,.06-.31.14-.43,0,0,.19-.93.02-1.88,0,0-.07-.09-.09-.22-.19-.04-.31-.25-.31-.25-.38-.04-.41-.42-.41-.42-.23-.11-.21-.42-.21-.42-.31-.17-.14-.58-.14-.58-.25-.13-.18-.59-.18-.59-.25-.16-.11-.49-.11-.49-.19-.09-.12-.42-.12-.42-.25-.27-.04-.71-.04-.71-.05.46.29.64.29.64-.14.22.1.44.1.44-.16.28.16.47.16.47-.16.31.14.61.14.61-.17.38.15.48.15.48-.12.28.21.43.21.43-.1.35.35.36.35.36-.08.2.31.42.31.42-.04.02-.07.02-.11.03.06.06.16.14.29.15,0,0,.1,1.01,0,1.95,0,0-.07.32-.1.36,0,0-.02.08,0,.14,0,0-.08.14-.21.13,0,0-.11.06-.14.24l-.33.54.48-.3.03.07s-.28.19-.38.34c0,0,.08.06.59-.1,0,0,.2-.06.27-.19,0,0,.1-.07,0-.22,0,0-.06-.06-.08-.25,0,0,.09.04.2-.05,0,0,.04-.01.09-.11,0,0-.02-.2.13-.3,0,0-.09-2,.04-2.16,0,0,.08-.41-.25-.49,0,0,.38-.35.05-.5,0,0,.4-.37-.06-.53,0,0,.49-.34.16-.64,0,0,.24-.33-.05-.57,0,0,.12-.51-.2-.56,0,0,.26-.35-.04-.44,0,0,.17-.49-.17-.64,0,0,.38.02.47.53,0,0,.26.13.07.46,0,0,.29.23.16.59,0,0,.23.26.07.62,0,0,.27.42-.11.64,0,0,.22.22.04.5,0,0,.2.2-.04.48,0,0,.13.23,0,.48,0,0,.39.32.69.07,0,0,.22-.23.11-.56,0,0,.19-.18.08-.35,0,0,.11-.19-.05-.31,0,0,.19-.35-.07-.58,0,0,.08-.38-.12-.57,0,0,.08-.28-.17-.5,0,0,.11-.42-.15-.6,0,0,.04-.26-.22-.5,0,0,.02-.38-.35-.57,0,0-.04-.39-.39-.47,0,0-.07-.32-.4-.37,0,0,.03-.25-.25-.35,0,0-.05-.35-.56-.32,0,0-.11-.32-.4-.32,0,0-.14-.17-.39-.15l-.13-.09v2.9s0,.09-.06.1c0,0-.02.43.25.54,0,0-.14.31.1.5,0,0-.08.42.16.57,0,0-.12.35.1.48,0,0-.11.34.16.58,0,0,0,.35.29.39,0,0,.19.39.5.32,0,0,.35.24.08,2.33,0,0-.25.1-.19.42,0,0-.18.11-.29.58h.06l.44-.38Z"/>
    <path class="cls-5" d="M72.59,16.76s.13.24.18.34.26.33.34.36c0,0-.14.09-.25.06,0,0-.2-.02-.2.16,0,0,.05.16,0,.19,0,0-.07.09-.13.05,0,0-.1-.08-.03-.21,0,0,.13-.11.08-.22,0,0-.02-.08-.14-.11,0,0-.01,0-.01,0-.13-.03-.14-.17-.02-.19,0,0,.25-.02.17-.22l-.09-.09.09-.12Z"/>
    <path class="cls-5" d="M10.41,36.2l-.02,2.64c-.01,1.24-.08,1.63-.38,2.18-.52.96-1.5,1.46-2.8,1.46-1.6,0-2.83-.83-3.16-2.15-.1-.4-.14-.75-.14-1.35v-2.74c0-.88-.09-1.01-.79-1.15-.03,0-.08-.01-.12-.02v-.26h.21c.43.03.57.03.96.03.43,0,.86,0,1.04-.01l.63-.02h.26s0,.25,0,.25c-.72.08-.87.26-.87,1.1v3.07c0,.93.08,1.33.33,1.77.39.7,1.14,1.1,2.02,1.1,1.21,0,2.16-.79,2.34-1.94.03-.21.05-.43.05-.73v-.28l-.07-2.88c-.02-.96-.12-1.1-.86-1.18h-.13v-.27h.12s.48.01.48.01c.15.01.3.01.47.01s.34,0,.71-.01h.45s.17-.02.17-.02v.27c-.68.05-.89.3-.9,1.12"/>
    <path class="cls-3" d="M10.41,36.2l-.02,2.64c-.01,1.24-.08,1.63-.38,2.18-.52.96-1.5,1.46-2.8,1.46-1.6,0-2.83-.83-3.16-2.15-.1-.4-.14-.75-.14-1.35v-2.74c0-.88-.09-1.01-.79-1.15-.03,0-.08-.01-.12-.02v-.26h.21c.43.03.57.03.96.03.43,0,.86,0,1.04-.01l.63-.02h.26s0,.25,0,.25c-.72.08-.87.26-.87,1.1v3.07c0,.93.08,1.33.33,1.77.39.7,1.14,1.1,2.02,1.1,1.21,0,2.16-.79,2.34-1.94.03-.21.05-.43.05-.73v-.28l-.07-2.88c-.02-.96-.12-1.1-.86-1.18h-.13v-.27h.12s.48.01.48.01c.15.01.3.01.47.01s.34,0,.71-.01h.45s.17-.02.17-.02v.27c-.68.05-.89.3-.9,1.12Z"/>
    <path class="cls-5" d="M20.75,35.14h-.08c-.66.03-.85.26-.85,1.01v6.35h-.27l-5.84-6.4v4.69c-.01.98.18,1.21.99,1.25v.28h-2.37v-.27c.76-.06.93-.29.93-1.24v-4.89c0-.55-.24-.78-.83-.8h-.08v-.28h.17s.42-.01.42-.01h.44s.43,0,.43,0h.53l4.99,5.54v-4.19c0-.82-.15-.99-.93-1.05v-.3h.18c.32.02.8.03,1.06.03h.46s.66-.01.66-.01v.28Z"/>
    <path class="cls-3" d="M20.75,35.14h-.08c-.66.03-.85.26-.85,1.01v6.35h-.27l-5.84-6.4v4.69c-.01.98.18,1.21.99,1.25v.28h-2.37v-.27c.76-.06.93-.29.93-1.24v-4.89c0-.55-.24-.78-.83-.8h-.08v-.28h.17s.42-.01.42-.01h.44s.43,0,.43,0h.53l4.99,5.54v-4.19c0-.82-.15-.99-.93-1.05v-.3h.18c.32.02.8.03,1.06.03h.46s.66-.01.66-.01v.28Z"/>
    <path class="cls-5" d="M24.48,35.1c-.69.02-.84.21-.84,1.01v4.96c0,.8.16.99.84,1v.26c-.66,0-.9-.01-1.45-.01s-.82.01-1.5.01v-.26c.67-.01.84-.2.84-1v-4.96c0-.8-.17-1-.84-1.01v-.26c.67.01,1.07.01,1.73.01.62,0,.75,0,1.22-.01v.26Z"/>
    <path class="cls-3" d="M24.48,35.1c-.69.02-.84.21-.84,1.01v4.96c0,.8.16.99.84,1v.26c-.66,0-.9-.01-1.45-.01s-.82.01-1.5.01v-.26c.67-.01.84-.2.84-1v-4.96c0-.8-.17-1-.84-1.01v-.26c.67.01,1.07.01,1.73.01.62,0,.75,0,1.22-.01v.26Z"/>
    <path class="cls-5" d="M33.62,35.07c-.68.05-1.02.28-1.26.86l-.16.4-2.5,6.13h-.24l-2.88-6.16c-.44-.96-.61-1.11-1.26-1.22v-.26h.89c.16.01.66.01,1.05.01h1.23s.25-.02.25-.02v.26c-.6.01-.92.2-.92.56,0,.14.05.32.12.48l2.1,4.68,1.69-4.68c.07-.2.12-.43.12-.56,0-.32-.19-.45-.71-.47v-.26h.17c.07,0,.23.01.46.01.3,0,.49.01.57.01.09,0,.28-.01.57-.01h.49s.2-.02.2-.02v.26Z"/>
    <path class="cls-3" d="M33.62,35.07c-.68.05-1.02.28-1.26.86l-.16.4-2.5,6.13h-.24l-2.88-6.16c-.44-.96-.61-1.11-1.26-1.22v-.26h.89c.16.01.66.01,1.05.01h1.23s.25-.02.25-.02v.26c-.6.01-.92.2-.92.56,0,.14.05.32.12.48l2.1,4.68,1.69-4.68c.07-.2.12-.43.12-.56,0-.32-.19-.45-.71-.47v-.26h.17c.07,0,.23.01.46.01.3,0,.49.01.57.01.09,0,.28-.01.57-.01h.49s.2-.02.2-.02v.26Z"/>
    <path class="cls-5" d="M39.38,34.93l.04.52c.02.28.06.56.11.97l.02.18-.36.03c-.08-.44-.18-.67-.38-.91-.35-.39-.63-.47-1.7-.47h-.79v3.04h.76c1,0,1.2-.13,1.25-.9v-.15h.38v.11l-.02.49c0,.15-.01.35-.01.61,0,.24.01.42.01.54l.02.55v.19h-.37c0-.85-.21-1.02-1.31-1.02h-.73v2.29c0,.77.18.92,1.05.92,1.54,0,2.04-.34,2.29-1.57l.36.07c-.06.45-.11,1.06-.15,1.69v.23c-.49-.01-1.17-.01-2.01-.01-.36,0-.57,0-1.92.01h-.94c-.43.01-.49.01-.78.02v-.26c.67-.01.84-.2.84-1v-4.98c0-.81-.17-1-.84-1.01v-.27h.24s.57.02.57.02h1.82s1.15,0,1.15,0h1.02s.35-.02.35-.02v.1Z"/>
    <path class="cls-3" d="M39.38,34.93l.04.52c.02.28.06.56.11.97l.02.18-.36.03c-.08-.44-.18-.67-.38-.91-.35-.39-.63-.47-1.7-.47h-.79v3.04h.76c1,0,1.2-.13,1.25-.9v-.15h.38v.11l-.02.49c0,.15-.01.35-.01.61,0,.24.01.42.01.54l.02.55v.19h-.37c0-.85-.21-1.02-1.31-1.02h-.73v2.29c0,.77.18.92,1.05.92,1.54,0,2.04-.34,2.29-1.57l.36.07c-.06.45-.11,1.06-.15,1.69v.23c-.49-.01-1.17-.01-2.01-.01-.36,0-.57,0-1.92.01h-.94c-.43.01-.49.01-.78.02v-.26c.67-.01.84-.2.84-1v-4.98c0-.81-.17-1-.84-1.01v-.27h.24s.57.02.57.02h1.82s1.15,0,1.15,0h1.02s.35-.02.35-.02v.1Z"/>
    <path class="cls-5" d="M43.2,38.45c.17.01.22.01.33.01.51,0,.87-.04,1.15-.16.46-.19.73-.66.73-1.29s-.28-1.26-.73-1.58c-.33-.22-.57-.29-1.16-.29h-.31v3.31ZM41.25,34.83c.31.01.63.01.97.01.46,0,.93-.01,1.45-.03.36-.01.65-.02.88-.02,1.36,0,2.25.78,2.25,1.93,0,.7-.37,1.35-.96,1.66-.16.09-.27.12-.58.23.16.13.23.22.39.53l.61,1.15c.66,1.24.78,1.39,1.07,1.61.1.08.22.14.38.17.11.02.18.03.35.03v.26c-.31.05-.48.06-.72.06-.69,0-1.3-.22-1.69-.64-.34-.35-.65-.89-1.26-2.15-.3-.63-.54-.8-1.12-.8h-.07v2.02c0,.99.12,1.14.98,1.18v.31h-1.02s-.74-.01-.74-.01c-.4,0-.67,0-1.31.01v-.26c.69-.01.84-.2.84-1v-4.98c0-.81-.16-1-.84-1.01v-.27h.16Z"/>
    <path class="cls-3" d="M43.2,38.45c.17.01.22.01.33.01.51,0,.87-.04,1.15-.16.46-.19.73-.66.73-1.29s-.28-1.26-.73-1.58c-.33-.22-.57-.29-1.16-.29h-.31v3.31ZM41.25,34.83c.31.01.63.01.97.01.46,0,.93-.01,1.45-.03.36-.01.65-.02.88-.02,1.36,0,2.25.78,2.25,1.93,0,.7-.37,1.35-.96,1.66-.16.09-.27.12-.58.23.16.13.23.22.39.53l.61,1.15c.66,1.24.78,1.39,1.07,1.61.1.08.22.14.38.17.11.02.18.03.35.03v.26c-.31.05-.48.06-.72.06-.69,0-1.3-.22-1.69-.64-.34-.35-.65-.89-1.26-2.15-.3-.63-.54-.8-1.12-.8h-.07v2.02c0,.99.12,1.14.98,1.18v.31h-1.02s-.74-.01-.74-.01c-.4,0-.67,0-1.31.01v-.26c.69-.01.84-.2.84-1v-4.98c0-.81-.16-1-.84-1.01v-.27h.16Z"/>
    <path class="cls-5" d="M53.62,36.78h-.36c-.1-.49-.16-.65-.33-.92-.33-.51-.93-.82-1.56-.82-.73,0-1.32.52-1.32,1.15,0,.4.23.72.75,1.05.33.19.7.41,1.11.64,1.03.57,1.45.91,1.71,1.39.15.27.21.6.21.96,0,1.35-1,2.25-2.49,2.25-.65,0-1.6-.1-2.31-.26l-.09-1.89.37-.03.02.08c.18.69.37.97.85,1.31.37.27.81.42,1.24.42.76,0,1.36-.56,1.36-1.28,0-.21-.07-.43-.17-.57-.24-.35-.47-.49-1.83-1.19-1.24-.63-1.82-1.32-1.82-2.16s.6-1.71,1.37-2.01c.35-.14.76-.2,1.22-.2s1.03.06,1.79.17l.13.02.11,1.91Z"/>
    <path class="cls-3" d="M53.62,36.78h-.36c-.1-.49-.16-.65-.33-.92-.33-.51-.93-.82-1.56-.82-.73,0-1.32.52-1.32,1.15,0,.4.23.72.75,1.05.33.19.7.41,1.11.64,1.03.57,1.45.91,1.71,1.39.15.27.21.6.21.96,0,1.35-1,2.25-2.49,2.25-.65,0-1.6-.1-2.31-.26l-.09-1.89.37-.03.02.08c.18.69.37.97.85,1.31.37.27.81.42,1.24.42.76,0,1.36-.56,1.36-1.28,0-.21-.07-.43-.17-.57-.24-.35-.47-.49-1.83-1.19-1.24-.63-1.82-1.32-1.82-2.16s.6-1.71,1.37-2.01c.35-.14.76-.2,1.22-.2s1.03.06,1.79.17l.13.02.11,1.91Z"/>
    <path class="cls-5" d="M57.73,35.1c-.69.02-.84.21-.84,1.01v4.96c0,.8.16.99.84,1v.26c-.66,0-.9-.01-1.45-.01s-.82.01-1.5.01v-.26c.67-.01.84-.2.84-1v-4.96c0-.8-.17-1-.84-1.01v-.26c.67.01,1.07.01,1.73.01.62,0,.75,0,1.22-.01v.26Z"/>
    <path class="cls-3" d="M57.73,35.1c-.69.02-.84.21-.84,1.01v4.96c0,.8.16.99.84,1v.26c-.66,0-.9-.01-1.45-.01s-.82.01-1.5.01v-.26c.67-.01.84-.2.84-1v-4.96c0-.8-.17-1-.84-1.01v-.26c.67.01,1.07.01,1.73.01.62,0,.75,0,1.22-.01v.26Z"/>
    <path class="cls-5" d="M65.47,36.88h-.37c-.06-.67-.22-1.05-.55-1.26-.26-.18-.4-.21-.99-.21h-.89v5.66c-.01.82.16,1.01.84,1.02v.25h-.92s-.52-.01-.52-.01h-.6c-.21,0-.52.01-.92.01v-.25c.69-.01.84-.21.84-1.01v-5.66h-1.15c-.84-.01-1.16.36-1.29,1.49h-.38l.1-2.08h.17s.82.01.82.01h4.79s.75-.02.75-.02h.2l.06,2.07Z"/>
    <path class="cls-3" d="M65.47,36.88h-.37c-.06-.67-.22-1.05-.55-1.26-.26-.18-.4-.21-.99-.21h-.89v5.66c-.01.82.16,1.01.84,1.02v.25h-.92s-.52-.01-.52-.01h-.6c-.21,0-.52.01-.92.01v-.25c.69-.01.84-.21.84-1.01v-5.66h-1.15c-.84-.01-1.16.36-1.29,1.49h-.38l.1-2.08h.17s.82.01.82.01h4.79s.75-.02.75-.02h.2l.06,2.07Z"/>
    <path class="cls-5" d="M73.66,35.1c-.53.06-.74.24-1.11.95l-1.9,3.63v1.36c0,.84.15,1,.99,1.05v.26h-.26s-1.42-.01-1.42-.01h-1.61s0-.25,0-.25c.88-.01,1.03-.17,1.03-1.06v-1.35l-1.54-3.17c-.58-1.21-.73-1.35-1.44-1.42v-.25h.84c.4.02.72.02.93.02.37,0,1.07-.01,1.43-.01h.2s0,.25,0,.25c-.66.06-.83.16-.83.51,0,.16.04.36.12.52l1.39,2.95,1.39-2.9c.1-.2.15-.38.15-.54,0-.33-.2-.48-.68-.52v-.26h.16s.4,0,.4,0h1.54s.19-.01.19-.01v.26Z"/>
    <path class="cls-3" d="M73.66,35.1c-.53.06-.74.24-1.11.95l-1.9,3.63v1.36c0,.84.15,1,.99,1.05v.26h-.26s-1.42-.01-1.42-.01h-1.61s0-.25,0-.25c.88-.01,1.03-.17,1.03-1.06v-1.35l-1.54-3.17c-.58-1.21-.73-1.35-1.44-1.42v-.25h.84c.4.02.72.02.93.02.37,0,1.07-.01,1.43-.01h.2s0,.25,0,.25c-.66.06-.83.16-.83.51,0,.16.04.36.12.52l1.39,2.95,1.39-2.9c.1-.2.15-.38.15-.54,0-.33-.2-.48-.68-.52v-.26h.16s.4,0,.4,0h1.54s.19-.01.19-.01v.26Z"/>
    <path class="cls-5" d="M79.74,35.04c-1.47,0-2.37,1.22-2.37,3.19,0,2.24,1.18,3.87,2.8,3.87,1.44,0,2.36-1.24,2.36-3.19v-.14c-.07-2.23-1.2-3.73-2.79-3.73M80.21,42.48c-2.5,0-4.38-1.69-4.38-3.94s1.74-3.87,4.08-3.87,4.15,1.64,4.15,3.94-1.59,3.87-3.86,3.87"/>
    <path class="cls-3" d="M79.74,35.04c-1.47,0-2.37,1.22-2.37,3.19,0,2.24,1.18,3.87,2.8,3.87,1.44,0,2.36-1.24,2.36-3.19v-.14c-.07-2.23-1.2-3.73-2.79-3.73ZM80.21,42.48c-2.5,0-4.38-1.69-4.38-3.94s1.74-3.87,4.08-3.87,4.15,1.64,4.15,3.94-1.59,3.87-3.86,3.87Z"/>
    <path class="cls-5" d="M89.91,35.05c.01.09.01.19.02.32.01.25.01.42.02.52l.04.47.02.26-.34.03c-.08-.45-.16-.66-.36-.9-.36-.42-.78-.54-1.9-.54h-.83v3.07h.83c1.12,0,1.34-.16,1.37-1.03h.34c-.02.51-.03.93-.03,1.42,0,.25,0,.51.01.84v.2s-.33,0-.33,0c-.06-.81-.32-1-1.42-1h-.78v2.36c-.01.82.17,1.01.89,1.01h.1v.26s-.2-.01-.2-.01h-2.9s0-.25,0-.25c.68,0,.84-.2.84-1v-4.98c0-.81-.16-1.01-.84-1.02v-.26c.12,0,.21.01.27.01.07,0,.34,0,.83.01l.87.02h2.32c.53,0,.67,0,1.14-.01v.2Z"/>
    <path class="cls-3" d="M89.91,35.05c.01.09.01.19.02.32.01.25.01.42.02.52l.04.47.02.26-.34.03c-.08-.45-.16-.66-.36-.9-.36-.42-.78-.54-1.9-.54h-.83v3.07h.83c1.12,0,1.34-.16,1.37-1.03h.34c-.02.51-.03.93-.03,1.42,0,.25,0,.51.01.84v.2s-.33,0-.33,0c-.06-.81-.32-1-1.42-1h-.78v2.36c-.01.82.17,1.01.89,1.01h.1v.26s-.2-.01-.2-.01h-2.9s0-.25,0-.25c.68,0,.84-.2.84-1v-4.98c0-.81-.16-1.01-.84-1.02v-.26c.12,0,.21.01.27.01.07,0,.34,0,.83.01l.87.02h2.32c.53,0,.67,0,1.14-.01v.2Z"/>
    <path class="cls-5" d="M11.76,53.4c-1.32.92-2.48,1.31-3.89,1.31-2.83,0-4.75-1.78-4.75-4.43s2.04-4.58,5.02-4.58c1.06,0,2.17.22,3.41.7v.78s-.01.59-.01.59v.79s-.27,0-.27,0c-.21-1.44-1.45-2.44-3.05-2.44-1.43,0-2.41.64-2.96,1.92-.23.58-.36,1.22-.36,1.87,0,2.47,1.47,4.36,3.38,4.36.92,0,1.7-.38,2.53-1.22.39-.4.53-.57.83-1.06h.09l.04,1.41Z"/>
    <path class="cls-3" d="M11.76,53.4c-1.32.92-2.48,1.31-3.89,1.31-2.83,0-4.75-1.78-4.75-4.43s2.04-4.58,5.02-4.58c1.06,0,2.17.22,3.41.7v.78s-.01.59-.01.59v.79s-.27,0-.27,0c-.21-1.44-1.45-2.44-3.05-2.44-1.43,0-2.41.64-2.96,1.92-.23.58-.36,1.22-.36,1.87,0,2.47,1.47,4.36,3.38,4.36.92,0,1.7-.38,2.53-1.22.39-.4.53-.57.83-1.06h.09l.04,1.41Z"/>
    <path class="cls-5" d="M14.97,51.14h2.41l-1.28-3.13-1.13,3.13ZM19.68,52.71c.52,1.19.78,1.45,1.61,1.54v.29h-.34s-1.43-.01-1.43-.01h-1.92v-.31h.1c.48.01.71-.16.71-.51,0-.13-.04-.26-.1-.43l-.71-1.75h-2.76l-.6,1.65c-.09.26-.14.43-.14.54,0,.34.23.48.78.49h.16v.32c-.44-.01-.58-.01-1.12-.01h-1.83v-.31c.71,0,1.18-.42,1.57-1.35l2.96-7.24,3.06,7.09Z"/>
    <path class="cls-3" d="M14.97,51.14h2.41l-1.28-3.13-1.13,3.13ZM19.68,52.71c.52,1.19.78,1.45,1.61,1.54v.29h-.34s-1.43-.01-1.43-.01h-1.92v-.31h.1c.48.01.71-.16.71-.51,0-.13-.04-.26-.1-.43l-.71-1.75h-2.76l-.6,1.65c-.09.26-.14.43-.14.54,0,.34.23.48.78.49h.16v.32c-.44-.01-.58-.01-1.12-.01h-1.83v-.31c.71,0,1.18-.42,1.57-1.35l2.96-7.24,3.06,7.09Z"/>
    <path class="cls-5" d="M31.22,46.23h-.09c-.77.04-.99.3-.99,1.17v7.34h-.31l-6.74-7.39v5.41c-.01,1.13.21,1.4,1.14,1.44v.32h-2.74v-.31c.88-.07,1.08-.34,1.08-1.43v-5.65c0-.64-.27-.9-.96-.92h-.09v-.32h.19s.48-.01.48-.01h.51s.49,0,.49,0h.61l5.76,6.4v-4.84c0-.95-.17-1.14-1.08-1.21v-.35h.21c.36.03.92.04,1.22.04h.53s.77-.01.77-.01v.32Z"/>
    <path class="cls-3" d="M31.22,46.23h-.09c-.77.04-.99.3-.99,1.17v7.34h-.31l-6.74-7.39v5.41c-.01,1.13.21,1.4,1.14,1.44v.32h-2.74v-.31c.88-.07,1.08-.34,1.08-1.43v-5.65c0-.64-.27-.9-.96-.92h-.09v-.32h.19s.48-.01.48-.01h.51s.49,0,.49,0h.61l5.76,6.4v-4.84c0-.95-.17-1.14-1.08-1.21v-.35h.21c.36.03.92.04,1.22.04h.53s.77-.01.77-.01v.32Z"/>
    <path class="cls-5" d="M39.91,48.25h-.43c-.06-.78-.26-1.21-.64-1.45-.3-.21-.47-.25-1.14-.25h-1.03v6.53c-.01.95.18,1.17.97,1.18v.28h-1.06s-.6-.01-.6-.01h-.69c-.25,0-.6.01-1.06.01v-.28c.79-.01.97-.25.97-1.17v-6.53h-1.33c-.97-.01-1.34.41-1.49,1.71h-.44l.12-2.4h.2s.95.01.95.01h5.53s.87-.03.87-.03h.23l.07,2.39Z"/>
    <path class="cls-3" d="M39.91,48.25h-.43c-.06-.78-.26-1.21-.64-1.45-.3-.21-.47-.25-1.14-.25h-1.03v6.53c-.01.95.18,1.17.97,1.18v.28h-1.06s-.6-.01-.6-.01h-.69c-.25,0-.6.01-1.06.01v-.28c.79-.01.97-.25.97-1.17v-6.53h-1.33c-.97-.01-1.34.41-1.49,1.71h-.44l.12-2.4h.2s.95.01.95.01h5.53s.87-.03.87-.03h.23l.07,2.39Z"/>
    <path class="cls-5" d="M46.6,45.99l.05.6c.03.33.06.65.13,1.12l.03.21-.42.04c-.09-.51-.21-.78-.44-1.05-.4-.45-.73-.55-1.96-.55h-.91v3.5h.88c1.15,0,1.39-.15,1.44-1.04v-.17h.44v.13l-.03.57c0,.17-.01.4-.01.7,0,.27.01.48.01.62l.03.64v.22h-.43c0-.99-.25-1.18-1.51-1.18h-.84v2.65c0,.88.21,1.06,1.21,1.06,1.78,0,2.35-.39,2.65-1.82l.42.08c-.06.52-.13,1.22-.17,1.95v.26c-.57-.01-1.35-.01-2.32-.01-.42,0-.66,0-2.22.01h-1.09c-.49.01-.57.01-.9.03v-.3c.78-.01.97-.23.97-1.16v-5.75c0-.93-.19-1.16-.97-1.17v-.31h.27s.66.03.66.03h2.1s1.32,0,1.32,0h1.18s.4-.03.4-.03v.12Z"/>
    <path class="cls-3" d="M46.6,45.99l.05.6c.03.33.06.65.13,1.12l.03.21-.42.04c-.09-.51-.21-.78-.44-1.05-.4-.45-.73-.55-1.96-.55h-.91v3.5h.88c1.15,0,1.39-.15,1.44-1.04v-.17h.44v.13l-.03.57c0,.17-.01.4-.01.7,0,.27.01.48.01.62l.03.64v.22h-.43c0-.99-.25-1.18-1.51-1.18h-.84v2.65c0,.88.21,1.06,1.21,1.06,1.78,0,2.35-.39,2.65-1.82l.42.08c-.06.52-.13,1.22-.17,1.95v.26c-.57-.01-1.35-.01-2.32-.01-.42,0-.66,0-2.22.01h-1.09c-.49.01-.57.01-.9.03v-.3c.78-.01.97-.23.97-1.16v-5.75c0-.93-.19-1.16-.97-1.17v-.31h.27s.66.03.66.03h2.1s1.32,0,1.32,0h1.18s.4-.03.4-.03v.12Z"/>
    <path class="cls-5" d="M51,50.05c.19.01.26.01.38.01.58,0,1-.05,1.33-.18.53-.22.84-.77.84-1.49s-.32-1.45-.84-1.82c-.38-.26-.66-.34-1.34-.34h-.36v3.82ZM48.76,45.87c.36.01.73.01,1.12.01.53,0,1.08-.01,1.67-.04.42-.01.75-.03,1.01-.03,1.57,0,2.6.9,2.6,2.23,0,.8-.43,1.56-1.1,1.92-.18.1-.31.14-.67.26.18.16.26.26.45.61l.7,1.32c.77,1.43.9,1.61,1.23,1.86.12.09.26.15.44.19.13.03.21.04.4.04v.3c-.36.05-.56.06-.83.06-.79,0-1.51-.26-1.95-.74-.39-.4-.75-1.03-1.45-2.48-.35-.73-.62-.92-1.3-.92h-.08v2.34c0,1.14.14,1.31,1.13,1.36v.36h-1.18s-.86-.01-.86-.01c-.47,0-.78,0-1.52.01v-.3c.79-.01.97-.23.97-1.16v-5.75c0-.93-.18-1.16-.97-1.17v-.31h.18Z"/>
    <path class="cls-3" d="M51,50.05c.19.01.26.01.38.01.58,0,1-.05,1.33-.18.53-.22.84-.77.84-1.49s-.32-1.45-.84-1.82c-.38-.26-.66-.34-1.34-.34h-.36v3.82ZM48.76,45.87c.36.01.73.01,1.12.01.53,0,1.08-.01,1.67-.04.42-.01.75-.03,1.01-.03,1.57,0,2.6.9,2.6,2.23,0,.8-.43,1.56-1.1,1.92-.18.1-.31.14-.67.26.18.16.26.26.45.61l.7,1.32c.77,1.43.9,1.61,1.23,1.86.12.09.26.15.44.19.13.03.21.04.4.04v.3c-.36.05-.56.06-.83.06-.79,0-1.51-.26-1.95-.74-.39-.4-.75-1.03-1.45-2.48-.35-.73-.62-.92-1.3-.92h-.08v2.34c0,1.14.14,1.31,1.13,1.36v.36h-1.18s-.86-.01-.86-.01c-.47,0-.78,0-1.52.01v-.3c.79-.01.97-.23.97-1.16v-5.75c0-.93-.18-1.16-.97-1.17v-.31h.18Z"/>
    <path class="cls-5" d="M59.26,53.02c0,.93.18,1.14.96,1.14,1.21,0,1.82-.54,1.82-1.65s-.69-2.01-1.61-2.17c-.21-.04-.48-.07-.75-.07-.21,0-.25.01-.42.03v2.71ZM59.26,49.88c.22.03.32.03.57.03.93,0,1.28-.13,1.64-.6.22-.3.34-.69.34-1.1,0-.97-.6-1.76-1.45-1.92-.22-.04-.4-.05-.67-.05h-.42v3.65ZM57.05,45.86c.1,0,.38.01.8.01.53,0,.86.01.96.01.19,0,.51-.01.93-.01.25-.01.47-.01.66-.01.71,0,.91.03,1.43.18.86.25,1.47,1.06,1.47,1.93,0,1.08-.87,1.87-2.19,2.01.6.07.81.12,1.18.26.88.36,1.39,1.09,1.39,2.03,0,1.47-1.1,2.26-3.09,2.26h-3.78v-.3c.79,0,.99-.23.99-1.16v-5.75c0-.93-.19-1.16-.99-1.17v-.31c.1.01.18.01.23.01"/>
    <path class="cls-3" d="M59.26,53.02c0,.93.18,1.14.96,1.14,1.21,0,1.82-.54,1.82-1.65s-.69-2.01-1.61-2.17c-.21-.04-.48-.07-.75-.07-.21,0-.25.01-.42.03v2.71ZM59.26,49.88c.22.03.32.03.57.03.93,0,1.28-.13,1.64-.6.22-.3.34-.69.34-1.1,0-.97-.6-1.76-1.45-1.92-.22-.04-.4-.05-.67-.05h-.42v3.65ZM57.05,45.86c.1,0,.38.01.8.01.53,0,.86.01.96.01.19,0,.51-.01.93-.01.25-.01.47-.01.66-.01.71,0,.91.03,1.43.18.86.25,1.47,1.06,1.47,1.93,0,1.08-.87,1.87-2.19,2.01.6.07.81.12,1.18.26.88.36,1.39,1.09,1.39,2.03,0,1.47-1.1,2.26-3.09,2.26h-3.78v-.3c.79,0,.99-.23.99-1.16v-5.75c0-.93-.19-1.16-.99-1.17v-.31c.1.01.18.01.23.01Z"/>
    <path class="cls-5" d="M72.72,47.46l-.03,3.05c-.01,1.43-.09,1.88-.44,2.52-.6,1.1-1.73,1.69-3.23,1.69-1.84,0-3.27-.96-3.65-2.48-.12-.47-.15-.87-.15-1.56v-3.17c0-1.01-.1-1.17-.91-1.32-.04,0-.09-.01-.14-.03v-.3h.25c.49.04.66.04,1.1.04.49,0,.99,0,1.19-.01l.73-.03h.3s0,.29,0,.29c-.83.09-1,.3-1,1.27v3.54c0,1.08.09,1.53.38,2.04.45.8,1.31,1.27,2.34,1.27,1.4,0,2.49-.91,2.7-2.24.04-.25.05-.49.05-.84v-.33l-.08-3.32c-.03-1.1-.14-1.27-.99-1.36h-.15v-.31h.14s.56.01.56.01c.17.01.35.01.54.01s.39,0,.82-.01h.52s.19-.03.19-.03v.31c-.78.05-1.03.35-1.04,1.3"/>
    <path class="cls-3" d="M72.72,47.46l-.03,3.05c-.01,1.43-.09,1.88-.44,2.52-.6,1.1-1.73,1.69-3.23,1.69-1.84,0-3.27-.96-3.65-2.48-.12-.47-.15-.87-.15-1.56v-3.17c0-1.01-.1-1.17-.91-1.32-.04,0-.09-.01-.14-.03v-.3h.25c.49.04.66.04,1.1.04.49,0,.99,0,1.19-.01l.73-.03h.3s0,.29,0,.29c-.83.09-1,.3-1,1.27v3.54c0,1.08.09,1.53.38,2.04.45.8,1.31,1.27,2.34,1.27,1.4,0,2.49-.91,2.7-2.24.04-.25.05-.49.05-.84v-.33l-.08-3.32c-.03-1.1-.14-1.27-.99-1.36h-.15v-.31h.14s.56.01.56.01c.17.01.35.01.54.01s.39,0,.82-.01h.52s.19-.03.19-.03v.31c-.78.05-1.03.35-1.04,1.3Z"/>
    <path class="cls-5" d="M76.63,50.05c.19.01.26.01.38.01.58,0,1-.05,1.32-.18.53-.22.84-.77.84-1.49s-.32-1.45-.84-1.82c-.38-.26-.66-.34-1.34-.34h-.36v3.82ZM74.39,45.87c.36.01.73.01,1.12.01.53,0,1.08-.01,1.67-.04.42-.01.75-.03,1.01-.03,1.57,0,2.6.9,2.6,2.23,0,.8-.43,1.56-1.1,1.92-.18.1-.31.14-.68.26.18.16.26.26.45.61l.7,1.32c.77,1.43.9,1.61,1.23,1.86.12.09.26.15.44.19.13.03.21.04.4.04v.3c-.36.05-.56.06-.83.06-.79,0-1.51-.26-1.95-.74-.39-.4-.75-1.03-1.45-2.48-.35-.73-.62-.92-1.3-.92h-.08v2.34c0,1.14.14,1.31,1.13,1.36v.36h-1.18s-.86-.01-.86-.01c-.47,0-.78,0-1.52.01v-.3c.79-.01.97-.23.97-1.16v-5.75c0-.93-.18-1.16-.97-1.17v-.31h.18Z"/>
    <path class="cls-3" d="M76.63,50.05c.19.01.26.01.38.01.58,0,1-.05,1.32-.18.53-.22.84-.77.84-1.49s-.32-1.45-.84-1.82c-.38-.26-.66-.34-1.34-.34h-.36v3.82ZM74.39,45.87c.36.01.73.01,1.12.01.53,0,1.08-.01,1.67-.04.42-.01.75-.03,1.01-.03,1.57,0,2.6.9,2.6,2.23,0,.8-.43,1.56-1.1,1.92-.18.1-.31.14-.68.26.18.16.26.26.45.61l.7,1.32c.77,1.43.9,1.61,1.23,1.86.12.09.26.15.44.19.13.03.21.04.4.04v.3c-.36.05-.56.06-.83.06-.79,0-1.51-.26-1.95-.74-.39-.4-.75-1.03-1.45-2.48-.35-.73-.62-.92-1.3-.92h-.08v2.34c0,1.14.14,1.31,1.13,1.36v.36h-1.18s-.86-.01-.86-.01c-.47,0-.78,0-1.52.01v-.3c.79-.01.97-.23.97-1.16v-5.75c0-.93-.18-1.16-.97-1.17v-.31h.18Z"/>
    <path class="cls-5" d="M90,46.18c-.61.07-.86.27-1.29,1.09l-2.19,4.19v1.57c0,.97.17,1.16,1.14,1.21v.3h-.3s-1.64-.01-1.64-.01h-1.86s0-.28,0-.28c1.01-.01,1.19-.2,1.19-1.22v-1.56l-1.78-3.66c-.67-1.4-.84-1.56-1.66-1.64v-.29h.97c.47.03.83.03,1.08.03.43,0,1.23-.01,1.65-.01h.23s0,.29,0,.29c-.77.07-.96.18-.96.58,0,.18.05.42.14.6l1.61,3.4,1.61-3.35c.12-.23.17-.44.17-.62,0-.38-.23-.56-.78-.6v-.3h.18s.47,0,.47,0h1.78s.22-.01.22-.01v.3Z"/>
    <path class="cls-3" d="M90,46.18c-.61.07-.86.27-1.29,1.09l-2.19,4.19v1.57c0,.97.17,1.16,1.14,1.21v.3h-.3s-1.64-.01-1.64-.01h-1.86s0-.28,0-.28c1.01-.01,1.19-.2,1.19-1.22v-1.56l-1.78-3.66c-.67-1.4-.84-1.56-1.66-1.64v-.29h.97c.47.03.83.03,1.08.03.43,0,1.23-.01,1.65-.01h.23s0,.29,0,.29c-.77.07-.96.18-.96.58,0,.18.05.42.14.6l1.61,3.4,1.61-3.35c.12-.23.17-.44.17-.62,0-.38-.23-.56-.78-.6v-.3h.18s.47,0,.47,0h1.78s.22-.01.22-.01v.3Z"/>
  </g>
</svg>